<mxfile host="Electron" agent="Mozilla/5.0 (Windows NT 10.0; Win64; x64) AppleWebKit/537.36 (KHTML, like Gecko) draw.io/27.0.9 Chrome/134.0.6998.205 Electron/35.4.0 Safari/537.36" version="27.0.9">
  <diagram name="Page-1" id="BrG0jrC9huxRu5YWc9-l">
    <mxGraphModel dx="802" dy="555" grid="1" gridSize="10" guides="1" tooltips="1" connect="1" arrows="1" fold="1" page="1" pageScale="1" pageWidth="1600" pageHeight="900" math="0" shadow="0">
      <root>
        <mxCell id="0" />
        <mxCell id="1" parent="0" />
        <mxCell id="wo0u3d-V8i8jjWJqVI2R-1" value="&lt;h1 style=&quot;margin-top: 0px;&quot;&gt;&lt;span style=&quot;background-color: transparent; color: light-dark(rgb(0, 0, 0), rgb(255, 255, 255));&quot;&gt;Oyun Akış Şeması&lt;/span&gt;&lt;/h1&gt;&lt;h1 style=&quot;margin-top: 0px; margin-bottom: 8px;&quot;&gt;&lt;span style=&quot;background-color: transparent; color: light-dark(rgb(0, 0, 0), rgb(255, 255, 255)); font-weight: normal; font-size: 12px; line-height: 30%;&quot;&gt;Oyun içerisindeki seviye ve görev akış şeması karakterlerin hikayelerini &amp;amp; mekaniklerini tanıtmaya olanak sağlamak adına akış oluşturulmuştır&lt;/span&gt;&lt;/h1&gt;" style="text;html=1;whiteSpace=wrap;overflow=hidden;rounded=0;strokeColor=none;fillColor=none;autosize=0;movableLabel=0;metaEdit=0;comic=0;arcSize=0;" parent="1" vertex="1">
          <mxGeometry x="195" y="70" width="320" height="140" as="geometry" />
        </mxCell>
        <mxCell id="wo0u3d-V8i8jjWJqVI2R-27" value="" style="group" parent="1" vertex="1" connectable="0">
          <mxGeometry x="625" y="280" width="370" height="200" as="geometry" />
        </mxCell>
        <mxCell id="wo0u3d-V8i8jjWJqVI2R-21" value="Sol &amp;amp; Dew&#39;in bağlı olduğu dallar çatırdar" style="text;whiteSpace=wrap;html=1;container=0;" parent="wo0u3d-V8i8jjWJqVI2R-27" vertex="1">
          <mxGeometry y="120" width="250" height="40" as="geometry" />
        </mxCell>
        <mxCell id="wo0u3d-V8i8jjWJqVI2R-18" value="Kopuş Anı" style="text;html=1;align=center;verticalAlign=middle;resizable=0;points=[];autosize=1;strokeColor=#b85450;fillColor=#f8cecc;rounded=0;" parent="wo0u3d-V8i8jjWJqVI2R-27" vertex="1">
          <mxGeometry width="80" height="30" as="geometry" />
        </mxCell>
        <mxCell id="wo0u3d-V8i8jjWJqVI2R-20" value="&lt;span style=&quot;color: rgb(0, 0, 0); font-family: Helvetica; font-size: 12px; font-style: normal; font-variant-ligatures: normal; font-variant-caps: normal; font-weight: 400; letter-spacing: normal; orphans: 2; text-align: left; text-indent: 0px; text-transform: none; widows: 2; word-spacing: 0px; -webkit-text-stroke-width: 0px; white-space: normal; text-decoration-thickness: initial; text-decoration-style: initial; text-decoration-color: initial; float: none; display: inline !important;&quot;&gt;&quot;Yüksek rakımlı bir dağ yamacında başlayan fırtına, kök sistemini kurutur. Kuruyan dallar, üzerlerindeki meyveleri taşıyamaz hale gelir ve meyveler yerçekimine boyun eğerek düşer.&quot;&lt;/span&gt;" style="text;whiteSpace=wrap;html=1;fillColor=none;" parent="wo0u3d-V8i8jjWJqVI2R-27" vertex="1">
          <mxGeometry y="40" width="310" height="70" as="geometry" />
        </mxCell>
        <mxCell id="wo0u3d-V8i8jjWJqVI2R-22" value="Dal çatladıkça oyun ekranında kökler sararır / yapraklar dökülür" style="text;whiteSpace=wrap;html=1;" parent="wo0u3d-V8i8jjWJqVI2R-27" vertex="1">
          <mxGeometry y="140" width="370" height="40" as="geometry" />
        </mxCell>
        <mxCell id="wo0u3d-V8i8jjWJqVI2R-23" value="Dallar kırıldığında &lt;strong data-start=&quot;1234&quot; data-end=&quot;1298&quot;&gt;oyuncular yere düşme animasyonuyla farklı bölgelere savrulur&lt;/strong&gt;" style="text;whiteSpace=wrap;html=1;" parent="wo0u3d-V8i8jjWJqVI2R-27" vertex="1">
          <mxGeometry y="170" width="360" height="30" as="geometry" />
        </mxCell>
        <mxCell id="wo0u3d-V8i8jjWJqVI2R-28" value="" style="group" parent="1" vertex="1" connectable="0">
          <mxGeometry x="225" y="280" width="357" height="160" as="geometry" />
        </mxCell>
        <mxCell id="wo0u3d-V8i8jjWJqVI2R-2" value="Eğitim Bölümü" style="text;html=1;align=center;verticalAlign=middle;resizable=0;points=[];autosize=1;strokeColor=#d6b656;fillColor=#fff2cc;rounded=0;" parent="wo0u3d-V8i8jjWJqVI2R-28" vertex="1">
          <mxGeometry width="100" height="30" as="geometry" />
        </mxCell>
        <mxCell id="wo0u3d-V8i8jjWJqVI2R-14" value="&lt;strong data-start=&quot;401&quot; data-end=&quot;414&quot;&gt;Lokasyon:&lt;/strong&gt; Dağ zirvesine yakın bir yamaç (yüksek rakım, sisli, florası zengin)" style="text;whiteSpace=wrap;html=1;" parent="wo0u3d-V8i8jjWJqVI2R-28" vertex="1">
          <mxGeometry y="40" width="320" height="60" as="geometry" />
        </mxCell>
        <mxCell id="wo0u3d-V8i8jjWJqVI2R-16" value="- Oyuncular temel kontrolleri ve karakter geçişini öğrenir.&lt;div&gt;&lt;br&gt;&lt;div&gt;- Sol &amp;amp; Dew birlikte hareket eder, çevresel etkileşim (koku, nem, fotosentez, geçitler) tanıtılır.&lt;/div&gt;&lt;/div&gt;" style="text;whiteSpace=wrap;html=1;" parent="wo0u3d-V8i8jjWJqVI2R-28" vertex="1">
          <mxGeometry y="90" width="357" height="70" as="geometry" />
        </mxCell>
        <mxCell id="wo0u3d-V8i8jjWJqVI2R-35" style="edgeStyle=orthogonalEdgeStyle;rounded=0;orthogonalLoop=1;jettySize=auto;html=1;" parent="1" source="wo0u3d-V8i8jjWJqVI2R-18" target="wo0u3d-V8i8jjWJqVI2R-31" edge="1">
          <mxGeometry relative="1" as="geometry" />
        </mxCell>
        <mxCell id="wo0u3d-V8i8jjWJqVI2R-36" style="edgeStyle=orthogonalEdgeStyle;rounded=0;orthogonalLoop=1;jettySize=auto;html=1;" parent="1" source="wo0u3d-V8i8jjWJqVI2R-2" target="wo0u3d-V8i8jjWJqVI2R-18" edge="1">
          <mxGeometry relative="1" as="geometry" />
        </mxCell>
        <mxCell id="wo0u3d-V8i8jjWJqVI2R-31" value="Buluşma" style="text;html=1;align=center;verticalAlign=middle;resizable=0;points=[];autosize=1;strokeColor=#b85450;fillColor=#f8cecc;rounded=0;" parent="1" vertex="1">
          <mxGeometry x="1020" y="280" width="70" height="30" as="geometry" />
        </mxCell>
        <mxCell id="wo0u3d-V8i8jjWJqVI2R-37" value="Sol güneşli bir araziye düşmüştür. Dew ise Gölge ve Su Kenarı bir araziye düşmüştür birbiriyle buluşmalarının yolu ise anlatılan mekanikleri kullanmaktan geçer." style="text;whiteSpace=wrap;html=1;fillColor=none;" parent="1" vertex="1">
          <mxGeometry x="1015" y="320" width="310" height="70" as="geometry" />
        </mxCell>
        <mxCell id="wo0u3d-V8i8jjWJqVI2R-44" value="Sol&#39;ün yolu kurumuş topraklarla çevrildir ve yalnızca çevredeki sussuz bitkilerden suyun nerede olabileceğine dair sezgiler alır bu sezgiler ara ara kaybolmaktadır ve karşısına zararlı canlılar çıkar örneğin çürüme faktörünü hızlandırabilecek çürükçül alanlar bu çürükçül faktörün artmasına bağlı olarak aroması azalmakta ve buna bağlı olarak yeşertmenin etki edebileceği alan azalır&amp;nbsp; &amp;nbsp;" style="text;whiteSpace=wrap;html=1;fillColor=none;" parent="1" vertex="1">
          <mxGeometry x="1015" y="380" width="300" height="130" as="geometry" />
        </mxCell>
        <mxCell id="wo0u3d-V8i8jjWJqVI2R-45" value="Sol, Dew&#39;in yanına geçmek için nemli bir bitkiyle etkileşime geçip köprü kurması gerekmektedir fakat bu köprü dew&#39;in aktaracağı suyla beraber tam haline ulaşmaktadır" style="text;whiteSpace=wrap;html=1;fillColor=none;" parent="1" vertex="1">
          <mxGeometry x="1015" y="510" width="300" height="70" as="geometry" />
        </mxCell>
        <mxCell id="wo0u3d-V8i8jjWJqVI2R-48" value="Dew, gölgeli ve nemli bir araziye düşmüştür. Bu bölge, yer yer yosunlarla kaplı, çatlaklarla dolu ve toprağın altında gizli su cepleri barındıran bir yapıya sahiptir. Dew, çevresindeki titreşimlerden ve nem dalgalanmalarından suyun yerini sezebilmektedir; fakat zaman zaman bu sinyaller karışır, su kaynakları yer değiştirir ya da çürümüş taş yapılar sinyalleri bozar. Dew’in ilerleyebilmesi için çevresindeki pasif bitkilerle etkileşime geçmesi gerekir. Bu bitkiler uyandırıldıklarında, kökleri aracılığıyla suyun yönünü açığa çıkarır veya Dew’in taşıdığı suyun geçebileceği yollar oluşturur. Fakat Dew’in su taşıma kapasitesi sınırlıdır ve kurak alanlara fazla girerse taşıdığı nem buharlaşır.&lt;div&gt;&lt;br&gt;&lt;div&gt;Dew, bu nemli yolculuğu boyunca bazı zararlı mikroorganizmalarla da karşılaşır; bu bölgeler nemi emer ve Dew’in gücünü azaltır. Son olarak, Dew bulunduğu bölgedeki tüm suyu harekete geçirerek Sol’un geçeceği köprünün tamamlanmasını sağlar ve birleşmeleri mümkün hale gelir.&lt;/div&gt;&lt;/div&gt;" style="text;whiteSpace=wrap;html=1;" parent="1" vertex="1">
          <mxGeometry x="1315" y="290" width="285" height="280" as="geometry" />
        </mxCell>
        <mxCell id="wo0u3d-V8i8jjWJqVI2R-55" value="" style="group" parent="1" vertex="1" connectable="0">
          <mxGeometry x="215" y="690" width="357" height="280" as="geometry" />
        </mxCell>
        <mxCell id="wo0u3d-V8i8jjWJqVI2R-56" value="Birlikte Yeşert" style="text;html=1;align=center;verticalAlign=middle;resizable=0;points=[];autosize=1;strokeColor=#d6b656;fillColor=#fff2cc;rounded=0;" parent="wo0u3d-V8i8jjWJqVI2R-55" vertex="1">
          <mxGeometry y="-5" width="100" height="30" as="geometry" />
        </mxCell>
        <mxCell id="wo0u3d-V8i8jjWJqVI2R-57" value="&lt;strong data-end=&quot;189&quot; data-start=&quot;176&quot;&gt;Lokasyon:&lt;/strong&gt; Terk edilmiş bir dağ açıklığı (yarı yanmış toprak, çürümüş bitkiler, nemsiz hava)" style="text;whiteSpace=wrap;html=1;" parent="wo0u3d-V8i8jjWJqVI2R-55" vertex="1">
          <mxGeometry y="40" width="320" height="60" as="geometry" />
        </mxCell>
        <mxCell id="wo0u3d-V8i8jjWJqVI2R-58" value="- Sol &amp;amp; Dew birleşerek ilk ortak görevlerine başlar.&lt;div&gt;&lt;br&gt;&lt;div&gt;-&amp;nbsp;&lt;span style=&quot;background-color: transparent; color: light-dark(rgb(0, 0, 0), rgb(255, 255, 255));&quot;&gt;Oyuncular birlikte hareket ederek &lt;/span&gt;&lt;strong style=&quot;background-color: transparent; color: light-dark(rgb(0, 0, 0), rgb(255, 255, 255));&quot; data-end=&quot;386&quot; data-start=&quot;364&quot;&gt;çürüme etkisindeki&lt;/strong&gt;&lt;span style=&quot;background-color: transparent; color: light-dark(rgb(0, 0, 0), rgb(255, 255, 255));&quot;&gt; bölgeyi restore etmeye çalışır.&lt;/span&gt;&lt;/div&gt;&lt;/div&gt;&lt;div&gt;&lt;span style=&quot;background-color: transparent; color: light-dark(rgb(0, 0, 0), rgb(255, 255, 255));&quot;&gt;&lt;br&gt;&lt;/span&gt;&lt;/div&gt;&lt;div&gt;&lt;span style=&quot;background-color: transparent; color: light-dark(rgb(0, 0, 0), rgb(255, 255, 255));&quot;&gt;-&amp;nbsp;&lt;/span&gt;&lt;span style=&quot;background-color: transparent; color: light-dark(rgb(0, 0, 0), rgb(255, 255, 255));&quot;&gt;Dew önce nem üretir, ardından Sol güneş enerjisiyle yeşertme yapar.&lt;/span&gt;&lt;/div&gt;&lt;div&gt;&lt;span style=&quot;background-color: transparent; color: light-dark(rgb(0, 0, 0), rgb(255, 255, 255));&quot;&gt;&lt;br&gt;&lt;/span&gt;&lt;/div&gt;&lt;div&gt;&lt;span style=&quot;background-color: transparent; color: light-dark(rgb(0, 0, 0), rgb(255, 255, 255));&quot;&gt;-&amp;nbsp;&lt;/span&gt;&lt;span style=&quot;background-color: transparent; color: light-dark(rgb(0, 0, 0), rgb(255, 255, 255));&quot;&gt;Oyuncuların &lt;/span&gt;&lt;strong style=&quot;background-color: transparent; color: light-dark(rgb(0, 0, 0), rgb(255, 255, 255));&quot; data-end=&quot;531&quot; data-start=&quot;507&quot;&gt;senkronize zamanlama&lt;/strong&gt;&lt;span style=&quot;background-color: transparent; color: light-dark(rgb(0, 0, 0), rgb(255, 255, 255));&quot;&gt; ile hareket etmeleri gerekir; aksi halde bölge tekrar çürüme yayar.&lt;/span&gt;&lt;/div&gt;&lt;div&gt;&lt;span style=&quot;background-color: transparent; color: light-dark(rgb(0, 0, 0), rgb(255, 255, 255));&quot;&gt;&lt;br&gt;&lt;/span&gt;&lt;/div&gt;&lt;div&gt;&lt;span style=&quot;background-color: transparent; color: light-dark(rgb(0, 0, 0), rgb(255, 255, 255));&quot;&gt;-&amp;nbsp;&lt;/span&gt;&lt;span style=&quot;background-color: transparent; color: light-dark(rgb(0, 0, 0), rgb(255, 255, 255));&quot;&gt;Bu görev, oyunculara “birlikte etki” kavramını öğretir ve çevre restorasyonu mekaniklerini tanıtır.&lt;/span&gt;&lt;/div&gt;" style="text;whiteSpace=wrap;html=1;" parent="wo0u3d-V8i8jjWJqVI2R-55" vertex="1">
          <mxGeometry y="90" width="357" height="190" as="geometry" />
        </mxCell>
        <mxCell id="wo0u3d-V8i8jjWJqVI2R-60" value="" style="endArrow=none;dashed=1;html=1;dashPattern=1 3;strokeWidth=2;rounded=0;" parent="1" edge="1">
          <mxGeometry width="50" height="50" relative="1" as="geometry">
            <mxPoint x="195" y="610" as="sourcePoint" />
            <mxPoint x="1756.6843133223683" y="610" as="targetPoint" />
          </mxGeometry>
        </mxCell>
        <mxCell id="wo0u3d-V8i8jjWJqVI2R-78" style="edgeStyle=orthogonalEdgeStyle;rounded=0;orthogonalLoop=1;jettySize=auto;html=1;" parent="1" source="wo0u3d-V8i8jjWJqVI2R-64" target="wo0u3d-V8i8jjWJqVI2R-75" edge="1">
          <mxGeometry relative="1" as="geometry" />
        </mxCell>
        <mxCell id="wo0u3d-V8i8jjWJqVI2R-64" value="Akıntının Ritmi" style="text;html=1;align=center;verticalAlign=middle;resizable=0;points=[];autosize=1;strokeColor=#b85450;fillColor=#f8cecc;rounded=0;" parent="1" vertex="1">
          <mxGeometry x="625" y="690" width="100" height="30" as="geometry" />
        </mxCell>
        <mxCell id="wo0u3d-V8i8jjWJqVI2R-65" value="Buluşma noktasının ardından Sol ve Dew, Dew’in yönlendirdiği nemli köklerin ve su kanallarının oluşturduğu bir &lt;strong data-end=&quot;453&quot; data-start=&quot;437&quot;&gt;doğal akıntı&lt;/strong&gt; hattına ulaşır. Bu akıntı hattında, dev bir &lt;strong data-end=&quot;509&quot; data-start=&quot;498&quot;&gt;yaprağa&lt;/strong&gt; birlikte tutunmaları gerekir." style="text;whiteSpace=wrap;html=1;fillColor=none;" parent="1" vertex="1">
          <mxGeometry x="625" y="740" width="310" height="70" as="geometry" />
        </mxCell>
        <mxCell id="wo0u3d-V8i8jjWJqVI2R-69" value="&lt;span&gt;&lt;strong data-end=&quot;571&quot; data-start=&quot;561&quot; style=&quot;forced-color-adjust: none; color: rgb(0, 0, 0); font-family: Helvetica; font-size: 12px; font-style: normal; font-variant-ligatures: normal; font-variant-caps: normal; letter-spacing: normal; orphans: 2; text-align: left; text-indent: 0px; text-transform: none; widows: 2; word-spacing: 0px; -webkit-text-stroke-width: 0px; white-space: normal; text-decoration-thickness: initial; text-decoration-style: initial; text-decoration-color: initial;&quot;&gt;- Yaprak&lt;/strong&gt;&lt;span style=&quot;color: rgb(0, 0, 0); font-family: Helvetica; font-size: 12px; font-style: normal; font-variant-ligatures: normal; font-variant-caps: normal; font-weight: 400; letter-spacing: normal; orphans: 2; text-align: left; text-indent: 0px; text-transform: none; widows: 2; word-spacing: 0px; -webkit-text-stroke-width: 0px; white-space: normal; text-decoration-thickness: initial; text-decoration-style: initial; text-decoration-color: initial; float: none; display: inline !important;&quot;&gt;, bir&lt;span&gt;&amp;nbsp;&lt;/span&gt;&lt;/span&gt;&lt;strong data-end=&quot;593&quot; data-start=&quot;577&quot; style=&quot;forced-color-adjust: none; color: rgb(0, 0, 0); font-family: Helvetica; font-size: 12px; font-style: normal; font-variant-ligatures: normal; font-variant-caps: normal; letter-spacing: normal; orphans: 2; text-align: left; text-indent: 0px; text-transform: none; widows: 2; word-spacing: 0px; -webkit-text-stroke-width: 0px; white-space: normal; text-decoration-thickness: initial; text-decoration-style: initial; text-decoration-color: initial;&quot;&gt;doğal kızağa&lt;/strong&gt;&lt;span style=&quot;color: rgb(0, 0, 0); font-family: Helvetica; font-size: 12px; font-style: normal; font-variant-ligatures: normal; font-variant-caps: normal; font-weight: 400; letter-spacing: normal; orphans: 2; text-align: left; text-indent: 0px; text-transform: none; widows: 2; word-spacing: 0px; -webkit-text-stroke-width: 0px; white-space: normal; text-decoration-thickness: initial; text-decoration-style: initial; text-decoration-color: initial; float: none; display: inline !important;&quot;&gt;&amp;nbsp;dönüşür ve ikili suyun yönüne doğru kaymaya başlar.&lt;/span&gt;&lt;/span&gt;&lt;div&gt;&lt;br&gt;&lt;div&gt;&lt;span style=&quot;color: rgb(0, 0, 0); font-family: Helvetica; font-size: 12px; font-style: normal; font-variant-ligatures: normal; font-variant-caps: normal; font-weight: 400; letter-spacing: normal; orphans: 2; text-align: left; text-indent: 0px; text-transform: none; widows: 2; word-spacing: 0px; -webkit-text-stroke-width: 0px; white-space: normal; text-decoration-thickness: initial; text-decoration-style: initial; text-decoration-color: initial; float: none; background-color: light-dark(#ffffff, var(--ge-dark-color, #121212)); display: inline !important;&quot;&gt;- Yol boyunca çeşitli&amp;nbsp;&lt;strong data-start=&quot;763&quot; data-end=&quot;817&quot;&gt;engel, çürük çukurlar ve hızlandırıcı su tünelleri&lt;/strong&gt;&amp;nbsp;bulunur.&lt;/span&gt;&lt;/div&gt;&lt;div&gt;&lt;span style=&quot;color: rgb(0, 0, 0); font-family: Helvetica; font-size: 12px; font-style: normal; font-variant-ligatures: normal; font-variant-caps: normal; font-weight: 400; letter-spacing: normal; orphans: 2; text-align: left; text-indent: 0px; text-transform: none; widows: 2; word-spacing: 0px; -webkit-text-stroke-width: 0px; white-space: normal; text-decoration-thickness: initial; text-decoration-style: initial; text-decoration-color: initial; float: none; background-color: light-dark(#ffffff, var(--ge-dark-color, #121212)); display: inline !important;&quot;&gt;&lt;br&gt;&lt;/span&gt;&lt;/div&gt;&lt;div&gt;&lt;span style=&quot;color: rgb(0, 0, 0); font-family: Helvetica; font-size: 12px; font-style: normal; font-variant-ligatures: normal; font-variant-caps: normal; font-weight: 400; letter-spacing: normal; orphans: 2; text-align: left; text-indent: 0px; text-transform: none; widows: 2; word-spacing: 0px; -webkit-text-stroke-width: 0px; white-space: normal; text-decoration-thickness: initial; text-decoration-style: initial; text-decoration-color: initial; float: none; background-color: light-dark(#ffffff, var(--ge-dark-color, #121212)); display: inline !important;&quot;&gt;&lt;strong style=&quot;&quot; data-start=&quot;829&quot; data-end=&quot;845&quot;&gt;-Koordinasyon&lt;/strong&gt;&amp;nbsp;iyi sağlanamazsa yaprak savrulur, suya düşerler ve bir önceki noktaya geri dönerler.&lt;/span&gt;&lt;/div&gt;&lt;/div&gt;" style="text;whiteSpace=wrap;html=1;" parent="1" vertex="1">
          <mxGeometry x="625" y="820" width="400" height="130" as="geometry" />
        </mxCell>
        <mxCell id="wo0u3d-V8i8jjWJqVI2R-70" style="edgeStyle=orthogonalEdgeStyle;rounded=0;orthogonalLoop=1;jettySize=auto;html=1;entryX=0.033;entryY=0.362;entryDx=0;entryDy=0;entryPerimeter=0;" parent="1" source="wo0u3d-V8i8jjWJqVI2R-56" target="wo0u3d-V8i8jjWJqVI2R-64" edge="1">
          <mxGeometry relative="1" as="geometry" />
        </mxCell>
        <mxCell id="wo0u3d-V8i8jjWJqVI2R-72" style="edgeStyle=orthogonalEdgeStyle;rounded=0;orthogonalLoop=1;jettySize=auto;html=1;entryX=-0.019;entryY=0.391;entryDx=0;entryDy=0;entryPerimeter=0;" parent="1" source="wo0u3d-V8i8jjWJqVI2R-2" target="wo0u3d-V8i8jjWJqVI2R-56" edge="1">
          <mxGeometry relative="1" as="geometry">
            <mxPoint x="185.00000000000023" y="700" as="targetPoint" />
            <Array as="points">
              <mxPoint x="195" y="295" />
              <mxPoint x="195" y="697" />
            </Array>
          </mxGeometry>
        </mxCell>
        <mxCell id="wo0u3d-V8i8jjWJqVI2R-73" value="" style="shape=image;verticalLabelPosition=bottom;labelBackgroundColor=default;verticalAlign=top;aspect=fixed;imageAspect=0;image=data:image/png,iVBORw0KGgoAAAANSUhEUgAAAqsAAAIuCAYAAACYZkGaAAAAAXNSR0IArs4c6QAAAARnQU1BAACxjwv8YQUAAAAJcEhZcwAADsMAAA7DAcdvqGQAAKG7SURBVHhe7N19WFRl/j/wNyktODKKJAzfoNCSRqzEJbNU2JRYg0pnH1yC75b4AJOVFZqlpMuSrdqWTq2WC6Zpuyu5Vk61QUZIgZqlxGSliKmTYAwaGKMjrIDn98eXc35zzgwwPOlR36/rmuuSc9/ncQ7ynvt8zhkvQRAEEBERERGp0FXKCUREREREasGwSkRERESqxbBKRERERKrFsEpEREREqsWwSkRERESqxbBKRERERKrFsEpEREREqsWwSkRERESqxbBKRERERKrFsEpEREREqsWwSkRERESqxbBKRERERKrFsEpEREREqsWwSkRERESqxbBKRERERKrFsEpEREREqsWwSkRERESqxbBKRERERKrFsEpEREREqsWwSkRERESqxbBKRERERKrFsHoBmEwmaLVaREREwGazKZuJiIiIqA0XPKxaLBYEBQVBq9V69MrPz1cugoiIiIiuEBc8rBIREREReeqCh9URI0bgm2++QUVFhfQyGAwAgNGjR8NiscjaJkyYoFwEEREREV0hLnhY9fb2RmBgIHQ6nfTy9fUFAPziF79AUFCQrM3Hx0e5CCIiIiK6QlzwsEpERERE5CnVh9XTp09j1apVGDNmjHTTVUBAAGbMmIHjx4/L+jrfdV9ZWYmcnBzcdNNN0Gq1CA0NxbJly9DQ0NDmPOKd+jabDREREdBqtTCZTCgvL8c999wDrVaLgQMHYubMmTh16hQEQcBnn30mbdvAgQORkpKCmpoa2Tra0tV9q6iowMyZM6HVajF58mScPXsWzc3NeOaZZzBgwACkp6ejqalJNj8RERHRpUj1YfWpp57Cs88+iwMHDuCaa65Bv3790NTUhLfffhv33XcfKisrlbPg/PnzWLRoEZ566ilUV1cDAOrr67Fs2TL8+c9/hiAIylnatGvXLsTFxWHXrl1A67K3bNkCo9GIzZs3Y8qUKThw4IDU9u677yItLQ0Oh0OxJFdd2bempiZkZGRgy5YtAIDm5mYIgoCffvoJH3zwAQRBwLZt21BbW6uclYiIiOiSo/qw6ufnh7/97W+w2Ww4cuQIqqur8cYbb+Cqq67C4cOH8fbbbytnwY8//oiysjLs2rULdrsdpaWluOGGGwAA//nPf6QA64lt27bhiSeeQG1tLQ4fPoyYmBgAwEcffYS0tDQ8/fTTqKmpwfHjx/Gb3/wGAFBSUoJ9+/YpluSqK/tWU1ODL774Alu3bkV9fT3y8vKg0WgQEBCAhIQEeHl5YdKkSQgICFDOSkRERHTJUX1YXb58OVJSUtCvXz8AkMLYmDFjAADl5eWKOYC+ffti9erVuPnmmwEAw4YNw8KFCwEAP/30U6cezB8bG4tHH30U3t7eGDx4MJ599ln07dtXaktPT4evry/8/Pzw8MMPo2/fvmhubpZGW9vTlX0DgJdeegmxsbHw8vKSpnl7e+Oll15CfX09TCYTvL29ZfMQERERXYpUH1b79OmD77//Hi+//DKMRiOioqJw44034vPPP1d2leh0OoSHh8umhYaGom/fvmhoaPC4phQAYmJipKcVAMB1112HwMBAAMC4cePabKuvr5emt6Ur+xYUFCSFWSIiIqLLnarD6tmzZ/HII4/gl7/8Jf70pz8hNzcXp06dwrBhwzp9mdvX17dHRhv79OmDq676v8PWp0+fNts60tV98/b25uO8iIiI6IrhWbK6SN5++23861//gq+vL7Zs2YJTp07hyJEj+OijjzB8+HBl90vK5bxvRERERD1F1WF1586dAICoqCiMHz9eGsl0OBw4ceKEovel5XLeNyIiIqKeouqwKl62/+abb/Dtt98Crc8mXbhwISoqKhS9Ly09vW98zioRERFdjlQdVn/3u9/hqquuQn19PeLi4hAUFIRrr70Whw4duuQvlff0vvE5q0RERHQ5UnVYveuuu7Bx40YMGTIEaB09nD17Nt566612b0K6FPT0vvE5q0RERHQ58hI683VOREREREQXkKpHVomIiIjoysawSkRERESqxbBKRERERKrFsEpEREREqsWwSkRERESqxbBKRERERKrFsEpEREREqsWwSkRERESqxbBKRERERKrFsEpEREREqsWwSkRERESqxbBKRERERKrFsEpEREREqsWwSkRERESqxbBKRERERKrFsEpEREREqsWwSkRERESqxbBKRERERKrFsEpEREREqsWwSkRERESqxbBKRERERKrFsEpEREREqsWwSkRERESqxbBKRERERKrFsOqkpaUFDQ0NyslEvcJoNMJoNConE1EPs9lsiIiIgMlkUjYR0SWAYbWVIAjIyMjAmDFjcOLECWVzjzGZTNBqtbLXlRZYLBYLkpKS4HA4XKZHRETAYrEArccqIiICNptN1o9ILcQQdKF/h9X0u2E0GpGQkODy+9wdFosFQUFByM/PVzapisPhQEJCQo/vPxHJMay2qqurQ1FREcLDw6HVapXN3Sb+UVu7di0qKipgt9tht9tRXV2NyspKBAUFSSHtcmYymRATE4P6+nplE6qrqxEWFoZhw4Ypm7pNGYSvNCaTyeM/qPn5+bIRKKPRqPrQcLFkZmYiOjoa2dnZyia6Amg0GmzZsgUAkJOTo2wmoh7CsNqqoqIC33//Pe644w74+Pgom7vF4XBgxowZCAsLw549e6DT6aQ2jUaDvLw8GAwGJCcnq2KkpDfk5+dDq9UiMzNT2SQxm82Ii4uDRqMBAKSnp2P//v2y40W9Lz4+HuXl5dLIv16vR3x8vLLbFc9isaCkpASzZ89WNvU6Nf1uZGdnIy8vT/q97QmRkZGoqam5JM47jUaDOXPmYO3atZft/99EFxvDaqsDBw6gpaUFUVFRyqZuKy4uRmlpKZYuXdrmf+hZWVkAgNzcXGXTZaG8vBzjx49HdXW1tK/OHA4H7HY7JkyYoGyiiyA7O1sa/U9PT1c2E4CioqJeuxJAl5ZRo0YBAMrKypRNRNQDVB1WN27ciLS0NKSlpWHjxo3K5m6rrKyULvs/+eSTEAQBU6ZMgVarRV5enrK7W57UrJnNZkRFRbX7R02n0yE6OhoFBQX4/PPP26zXEmvV9u3b5/aGAbGGynl7xBt5xDowccRMOS+c9se5ptZkMrV5g4K79bmTnp7e7uiLRqNBbm4uIiMjpWnKujznS/lGo1HavvZq98Tti4mJQVVVFWJiYrq0T+6Oi/j+iP2d2zy95A6n+ry25vVk+e76mEwmadmZmZnYsWMHgoODpZKTtuoClXXVS5YscTkeyvdGSblPzi9xOe6OqfI8Es9dcWReq9VK26+cXzmvst1dn878bjhzOBwoKCiQXQlAG+vszHkilmscPny43X1zPv75+fltlhEZFfWkyv1Urr8tzsdf6/QewM06PN2H9o6V8twU+4olKu62w5nz/w9arRYffvihsgvgwfHw9PwQ//82m82y6UTUM1QbVjdu3IjCwkI0NjaisbERhYWFPR5YQ0NDUVFRgaNHj0Kv1+PXv/41Tpw4AbvdjoSEBGX3LnE4HKisrERoaGibQU2k1+thtVoRFBSEqKgol//4bDYb1q5di9TUVAQGBsraOpKbm4uMjAwcOXIEdrsdmzdvRmZmpiyoWCwWjBw5EtHR0dKoWnFxMbS9UMPbVbW1tYiJiYHBYJBqfsPCwjBjxgy3f3TFMovi4mKEhISguLi406OFNpsNEydORGpqqnRcNm/eLLUXFxcjLi5OaquoqIDVasXcuXNly3GnpKQEL7zwgvS+iPNOnTpV2p+Olu9wODB16lSEhoa6vG/i5dSsrCxpZLumpkb2ocCZ0WiU1VVXV1fj888/x44dO5Rd2yWuV9weu92OpKQkhISEyK4irFixQrbNZrPZJQjk5ubCbDZL2xMVFYXk5GRMnDgRmzZtanPeziy/o98NpdOnT6O+vl52JaCnzpMdO3bg/vvvx/bt29vdbtGoUaMQEBCAoqIi2XSLxQKz2Yw5c+ZAo9EgPz8fMTEx2LBhg3QsAcjONXdMJhMSExOxefNmaduXLl2q7CbT0T50dKzakpiYCADSPMryKfEDQWVlJaqrq6XjvGLFClRVVcmW5enx8PT80Ov1qKysbPdYElHXqDas7ty5UznJ7bSe0FG9amNjI95//30YjUaX/4h0Oh3279/fozdY9OvXD3PmzIHZbJaNGpSVlaG2trZLl8pDQkKwfv16KTDHxMRg/PjxUiB2OBzIyMiAwWCQ7UtkZCRmzpwp/awGWVlZUi2bWC9WWlqKQ4cOKbv2CPEPofNxj4+Pl7YhPj5eFn51Oh1SU1M9/sNlMpmk90Wn02HTpk0oLS1FcXEx4MHyT58+DavVCoPBIPXpyvtmaa3B3LRpk1QLqdFosH79eoSEhCi7d0p+fj7MZrNs2enp6bKaxMjISBgMBpSXlzvN+X/nrhhwxfe7qqoKqampUugW5y0oKJCOeWeW397vhjs2mw2nTp1ymYYeOE98fX1lx8ndvjkTl6OsmSwqKkJAQABGjRoFh8OBVatWISkpSfa7s3TpUtm5pmSxWLB8+XJs3rxZdixnzpzZ5gceeLAPHR2rtiQlJcmO4ezZs1FbWytdfi8uLobVapW9n+LvlK+vrzRfZ46Hp+eHONhw+vRp2XQi6j7VhtULqb161YKCAixevBj//ve/UVlZqWzucWFhYfDz83M7WmI2m2EwGNr9I9GW6Oholxu7QkNDpT+Uhw4dQmlpqSzwqFFAQIBLWA8ODgZanybQG8Tj1tENcM6XHjMzMz36w6V8X9C6voCAAJdQ1dby/fz8EBYWhpSUFLeXRD0lnmvK7RGX31UWiwUpKSlYsGCBy7krjoSJ+5Wbm+sS3pTHKDg4GL6+vtDr9dK0tnRl+crfjbb4+/vL5uup88RdyVBHQWjChAmy0OZoLVNITU2FTqfDoUOHYLVaXW4Ga+tcEzkH3s7oaB88PVZKyv+flNtvNptd3k/nfqLOHA/l8to6P4KDg+Hv7y/9TEQ9R7Vhddy4ccpJbqd1V3NzM4qKihAcHIzw8HBlM+Li4vDiiy+6DbKeaOs/NnfKy8ulcgGdUw2rOBJRUlLi8p91TxGDnhj86P/T6XTYs2cPwsLCpBpn50uAYg0dnC5PuruJrKs6Wr7G6YkSzjW5nVVeXi59WOopjtYR+6ioKKSlpcnajEYjgoODZZfGk5KSZH26o7eXr3Qxz5Nhw4bJSofEMCZ+sKuurpbVbIuv8PBwl8vjznrjnIAHx6orHK0lV57o6vEgootDtWF12rRpiI2NhY+PD3x8fBAbG4tp06Ypu3VbfX09Dh48iJtvvln65O1wONDY2Kjs2mUGg6HDy9Tuwujs2bNhtVpx6NAhacREHOHo7miXUnBwsGzkQamn16cGndknMRCKASMxMRGm1huYxMukPVkKgtaRqM4sX7yDX6ypU97QcjHk5OS4fRKGWBZQXFzcqfphT/X28gHg1KlTLqOCF+M8gVN5RElJCWw2m8uTCoKDg2U128pXW8fIk9HrrmrrWHWVODDgia4ej/ZUV1e7lIYQUc9QbVhFa2DNyclBTk5OrwRVuKlXbWhowFNPPeXxJ3RPxMTEICoqChkZGW2OrmZmZiIsLAwxMTHStGHDhiEsLAwffPABVq1aJV3Sc6a8fCdezu8scbnKmzSUemp9atLZfUpPT0dSUpLLfCLxEqwnxHDhTKxNbmuUu6Plx8fHIysry6PRfGdtfajq6Hi0RQxo7i7/uyN+YOstPbl8nU7X4SXfnjxPPCF+kP3www+xdu1a6cYqdOL3W0mv17s9J3paR8fKU3q9vs3fKecR064ej470xig0Eak8rF4IZ86cQXNzM0aMGAFBEJCTkwO9Xo8bb7xR2dUtmwePrtK03qRitVoxevRo2X+kYk1dSUmJrIhfnC8uLg65ubmyS3rKNvHymXjJtaGhQernKZ1OhxUrViAzM1M2umGxWLBu3boeX9+F5u6Pk6f7JB4DkRh69Hq9VOPmfLNFTk6Ox3fPV1VVyb4oQazvFGuTPVm+zWbD888/L/0shiDnJ1B4EjrED1XKu6uVx8MT7V3+h1O5ifP7kZmZ2WOXYHt7+X5+fhgwYIBs+b15nnhCLB1asWIF/P39ZXWmutabsJR3sTscDixZsqTNDzXx8fEwGAyYNGmSrB563bp13aqPbu9YdYdY5uH8dBCbzYZ58+bJ+nX1eLTHbDZ79NQXIuq8Kz6sjhkzBnfddRdeeuklJCcno76+Ho888gi8vLyUXbtF1/rUgNTUVKlGS6vVSjV1bX0bjfifr/MlPZE4GpGYmAitVouhQ4di4cKFGD9+vKyfp+Lj41FcXIzly5dL2zdp0iSpXren13chOf9xcq7p9HSfMjIyZHVtqampSE9Ph671TmOz2Sy1w+lLHjqSlJQEvV4vzRsTE4MFCxZIl4o9Xf6mTZtk51RoaKjscrMYRGNiYtp8NqWm9asjnesI2zoeHZk7dy527NghPdtV3DZt6/M2IyMjsWHDBun90Gq1MBgMPVZT2tvLFz/oKO/Q763zxFPi3fE333yzy/8n6enp2Lx5s3Sui+fKbbfd1m7Ays7OxoIFC2T1ne+8847L/0ed1dax6g6dToft27fDarVK593EiRORm5vr8kSLrh4Pd9yVcRFRz/ESBEFQTrzStLS0oK6uDv369WvzPymTyYSCggJs2bKlzT69wdb6PMIVK1Z0+FgX6l02mw2ZmZlYuXLlBT0HLjZH63Nc4+Liuh0mLicWiwXJycnYtGmTR2UOF4Iat+lKkJ+fj3nz5mH79u0uHxKIqPuu+JFVAOjTpw8GDx6sygAifv1qZx8dQ72jpKQEwcHB3b5z+VIi1qx29xLt5SYyMhLR0dFYs2aNsumiWbNmjdurMNR7HK3PbHV3TwER9QyG1Q7s27cPKSkpWLlyJXbt2oXExES8+eabym69wub0jVX8T/DiE0s5srKyun0jiBrZbDaXL76w2WxITk6GwWDgyL4bWVlZKCkpabdm/UKxKL6xinqfeNUBgNvabCLqGSwDUCHx0n9VVRWysrJ46VUlTCYTMjMz4evri23btl12l1nFP7zKm354DqqbxWLBpEmT0NDQ4PJNU0RElwOGVSIiIiJSLZYBEBEREZFqMawSERERkWoxrBIRERGRajGsEhEREZFqMawSERERkWoxrBIRERGRajGsEhEREZFqMawSERERkWoxrBIRERGRajGsEhEREZFqMawSERERkWoxrBIRERGRajGsEhEREZFqMawSERERkWoxrBIRERGRajGsEhEREZFqMawSERERkWoxrBIRERGRajGsEhEREZFqMawSERERkWoxrDppaWlBQ0ODcjLRRWU0GmE0GpWTiYiIrggMq60EQUBGRgbGjBmDEydOKJt7jMlkglarlb2uhCBis9kQEREh7XNQUBAsFousj8ViQUREhMv0jhiNRiQkJMDhcCibiIiI6BLHsNqqrq4ORUVFCA8Ph1arVTZ3mxjW1q5di4qKCtjtdtjtdlRXV6OystJteLtc2Gw2TJw4EStWrJD222AwYNKkSbJ9rq6uRlhYGIYNGyab/0LqamC+XHRmFDc/Px8mk0n62Wg0Ij8/X9aHiIiouxhWW1VUVOD777/HHXfcAR8fH2VztzgcDsyYMQNhYWHYs2cPdDqd1KbRaJCXlweDwYDk5GTYbDbZvJeL3NxcxMfHSz9nZWUhICAARUVF0jSz2Yy4uDhoNBppmieys7ORl5fX6fmoe+Lj41FeXi6Nluv1etl7TERE1BMYVlsdOHAALS0tiIqKUjZ1W3FxMUpLS7F06dI2A1VWVhbQGuouNzqdDiNHjpRN8/PzQ1hYGMrLy4HWQG+32zFhwgRZP1K37OxsabQ8PT1d2UxERNRtqg6rGzduRFpaGtLS0rBx40Zlc7dVVlZKl/2ffPJJCIKAKVOmQKvVIi8vT9ndLfHyfnuXTs1mM6Kiotq9vK3T6RAdHY2CggJ8/vnnCAoKcntJ1WQyISIiAvv27UNERITsMixaQ19CQoJse8RLuxaLBUFBQdJImHJeuKktFfuJ05XzuFtfV2g0GuTm5iIyMlKaZjKZkJCQgMOHD8u2SbkuZc2qp/M5E/cjJiYGVVVViImJ6dK+5+fny45dRESENFou9ndu70ytrfL9U87ryfLd9TGZTNJ25+bmIjc3V7bt4nqV56Oy/nrJkiUux0P53igpj5dyu9DGOal8L8Vz3Hl5YmmNcn7lvMp2ZR+xXSx7UC6fiIh6l2rD6saNG1FYWIjGxkY0NjaisLCwxwNraGgoKioqcPToUej1evz617/GiRMnYLfbkZCQoOzeJQ6HA5WVlQgNDW1zVFWk1+thtVoRFBSEqKgomM1mWbvNZsPatWuRmpqKwMBAWVtHcnNzkZGRgSNHjsBut2Pz5s3IzMyUBRCLxYKRI0ciOjpaGi0rLi6GthdqeA8dOoTS0lIYDAZlk8yOHTtw//33Y/v27dL2mM1ml+Co1Nn5xHKM4uJihISEoLi4uNOjhfn5+UhJSZHmtdvtSE5OltqLi4sRFxcntVVUVMBqtWLu3Lmy5bhTUlKCF154QXr/xHmnTp0qBcGOlu9wODB16lSEhoa6vL/x8fGw2+1ISkpCUlIS7HY79u/fLytZcWY0GmX119XV1fj888+xY8cOZdd2iesVX9XV1Rg/fjzGjx+PtLQ0oPXcda53buu9zM3NhdlslpYTFRWF5ORkTJw4EZs2bWpzXk+Xn5iYCABSv8u9dIeISC1UG1Z37typnOR2Wk9or1717NmzWLx4MUaOHInrrrsOCxYswNmzZ6V2nU6H/fv3Izs7WzZfd/Tr1w9z5syB2WyWjdyUlZWhtra2S5fKQ0JCsH79eikwx8TEYPz48VIgdjgcyMjIgMFgkO1LZGQkZs6cKf3cE2w2G5KTk2EwGDqscfT19cWmTZuk0BQZGQmDwYCCgoI2R+vQjfm6o7y83GUEfdGiRdI2xMfHy8KvTqdDamoqKisrPdomk8kkvX86nQ6bNm1CaWkpiouLAQ+Wf/r0aVitVtkHhK68vxaLBSUlJbLjq9FosH79eoSEhCi7d0pOTg6sVqvsXE1PT5edJ+J7KZaQiEJCQqRyGo1Ggzlz5qCqqgqpqanSiL2788DT5SclJcmO7+zZs1FbW4uysjJZPyIi6lmqDasXUlv1qoIgYMWKFYiLi8PXX3+NnTt3Ytu2bXj22WfR3Nws69tTwsLC4Ofnh1GjRrm9AclgMMgulXsqOjra5cau0NBQKch4OtLZXfn5+QgPD0dYWBhWrlypbHahDH9wGoE+ffq0bLqzrs7XHXq9Hjt27OhwpNRoNEqXkjMzMz3aJuX7h9YwGhAQ4BKq2lq+WCeckpLSrcvX4jmp3B5x+V2Vn5+PzMxMrFixwmXZyvKF3Nxcl5CvPEbBwcHw9fWFXq+XprXFk+UrfzfaOv5ERNSzVBtWx40bp5zkdlp3NTc3o6ioCMHBwQgPD5e1nT59GkVFRXjppZdw9uxZhIaG4je/+Q22bduGn376Sda3LcpQ2J7y8nKpXEDnVMPqcDhgs9lQUlLi8gezp1RXVwOtf+B7i8lkQmJiIrKysi7Lu/fj4+OlS8haRb0qnGo84XQpWRwJ7AkdLd/5yRPONbmdVV5eLn2o6ik2mw3z5s1DUlKSy2i70WhEcHCwrMQhKSlJ1qc7env5RETUPaoNq9OmTUNsbCx8fHzg4+OD2NhYTJs2Tdmt2+rr63Hw4EHcfPPNCAgIAFpHWRobG+Hn54e5c+ciLS0Nvr6+ylk9ZjAYUFpaikOHDimbJO7C6OzZs2G1WnHo0CHpUuOoUaOAHhjFUgoODpb2353urs9oNCIzMxObN2/uVB2oGnRm3yMjI1FTUyM9M3bkyJGwWCywWCxYvnw5Nm/e3KMlI2gd0e3M8sU7+MW6ZeUNRxdDZmYm4PRUDFF+fj7MZjOKi4t75bzp7eUTEVH3qTasojWw5uTkICcnp1eCKtzUqzY0NOCpp55CZWUlvLy8cN999+G+++6Dl5cX6urqsH37dkyaNAnXXHONclFtiomJQVRUFDIyMtocXc3MzERYWBhiYmKkacOGDUNYWBg++OADrFq1CqmpqS6XR5WXIMXL+Z0lLte57MCdrqzPYrHAbDZj8+bNLqNml5LO7LtYwxkQECCNWis5HA4UFBQoJ7tVUlLiciOPWMPc1mh4R8uPj49HVlaWR6P+ztr68NXe8WhPfn6+dJOT8vx2R/xg11t6e/lERNQ5qg6rF8KZM2fQ3NyMESNGQBAE5OTkQK/X48Ybb5T1EwQBb775JgICApCVlYW+ffsCHj66SgwuVqsVo0ePloUOsVaupKREdlOJOF9cXBxyc3NhtVplN1Y5t4l39Dtab5JqaGiQ+nlKp9NhxYoVyMzMlF0atlgsWLduXbfWV1RUhKioKFkQVyt3od3TfV+3bp3bG+KCg4Ol+kbnJzzk5OR4fPd8VVWVNPqI1vclJSVFqmH2ZPk2mw3PP/+89LMYZp2fVKHX690GY2fihy/nO+HdHQ9PtHf5H05lKc7vR2ZmJqqqqpx6dV1vL5+IiLrvig+rY8aMwV133YWXXnoJycnJqK+vxyOPPAIvLy9Zv/fffx/ff/89/vGPf3TpUU661qcGpKamSs921Wq1Uq1cW48JEmvn3H0NaXp6OpKSkpCYmAitVouhQ4di4cKFGD9+vKyfp8Say+XLl0vbN2nSJOnGs+6sb8eOHQgODpaWK77U9qxKXesd9JmZmbKaTk/23W63S7WgWq0WKSkp2LZtmxQmN23aJNWziueQ8rJ3W5KSkqDX66V5Y2JisGDBAumSv6fL37Rpk9QeHByM0NBQWdmAeL6Fh4e71NyKNBoNtmzZgrCwMOlcdnc8OuJo/Wa3qqoq6dmuzi+TyYTIyEhs2LBBej+0Wi0MBkOP1ZT29vKJiKj7vARBEJQTrzQtLS2oq6tDv3793N70U1ZWhg8++AALFy6Et7c3cnNzcffdd2Pw4MHKrj3OZrNh4sSJWLFihduRJ1Kf/Px8lJeXX3E1kI7W57jGxcVdcftORES954ofWQWAPn36YPDgwW6DamlpKV544QVERETgww8/xJYtW7B79+5u3XDVGbmtX78q3lhFl4bMzMw2RyYvV2LNqiePiiIiIvIUw2o7HA4HFi9ejLy8PMyYMQMPPfQQZs6ciTNnzrgNtj3N5vSNVe5KBEid4uPjUV1djZEjR16WYdVms8FoNMpuyrJ14oseiIiIOoNhtR3icynFZy+Kr3Xr1rnUtPYk8aat8PBwpKam8pLqJUS8YS44OBj19fUudcaXAz8/P1RWVspqkMVztaPHZhEREXUWa1aJiIiISLU4skpEREREqsWwSkRERESqxbBKRERERKrFsEpEREREqsWwSkRERESqxbBKRERERKrFsEpEREREqsWwSkRERESqxbBKRERERKrFsEpEREREqsWwSkRERESqxbBKRERERKrFsEpEREREqsWwSkRERESqxbBKRERERKrFsEpEREREqsWwSkRERESqxbBKRERERKrFsEpEREREqsWwehkzm8344osvlJOvGFf6/hMREV0OGFbbIAgCnn/+eej1evzwww/K5kvC0aNHUVdXp5x8xbjS95+IiOhywLDahmPHjuGf//wnfvzxR2zatEnZ3K6mpiacO3dOOVl1Ghoa0NLSopysOpfKdl6KjEYjtFotIiIiYLPZlM0es9lsiIiIQH5+vrKJiIioWxhW27Bp0yYpIG3evBlVVVXKLm41NDTgf//3f/H73/8eZ8+eVTarxoEDBxAREYE1a9Yom1TlQm+nyWSCVqtt8xUUFASLxaKc7ZJkNBpRWVmJ6upq7N+/HzqdTtmFiIjoomNYdeOHH37AJ598gn/+858YPnw4jhw5gi1btii7uXXs2DF88cUXuOmmm9CvXz9ls2p8/vnnqKurw4gRI5RNqnKhtzM9PR12u93lVVxcDF9fXxgMBkRGRipnu+TYbDaUlJQgLi4OGo1G2UxERKQaDKtuvPvuu5gwYQJuv/12zJw5EwDwr3/9CydOnFB2dfH111/j1KlTiI6OVjapRnNzM4qKihAcHIzw8HBls2qoZTsdDgcyMjIQEBCArKwsZTMRERH1IoZVhaqqKhQWFiI5ORleXl4wGAwIDw9HRUUFzGazsruLPXv2wN/fHzfddJOySTXq6+tx8OBB3HzzzQgICFA2q4ZatjMnJwc7duzAihUreKmciIjoAlN1WN24cSPS0tKQlpaGjRs3Kpt7xZYtWzBixAgMGTIEABAYGIi0tDSgNbS4G1398ssvcc0110Cr1SI7OxunTp3C6NGjVVffuGzZMmi1WgwZMgTl5eX4+OOPERgYiISEBDgcDmX3i6a3ttPhcCAhIaFTy7HZbFi7di2SkpIQHx8va8vPz3epaXW+wcj5piPxRiatViutXzm/8uYkZbuyj/PynWttOzrvTCYTwsPDUVVVhczMTGi1WphMJqCT6xT3yWg0Oi39/7NYLAgKCpJu3hJ/Vu4nERFRe1QbVjdu3IjCwkI0NjaisbERhYWFvR5YT5w4gU8++QQpKSnw8vKSpjuPrn7wwQeyeQDg9ttvx08//SSNqhqNRtjtdtTU1LRb31hfX4+pU6ciIiKiU6+pU6eivr5eubgOLVy4EHa7HS+//DK8vLzw3nvvwW63Iy8vT1V1i2razszMTNTW1mL27Nmy6Q6HA2azGRUVFVJda1ZWFlJSUlyCYmJiIgwGg1T7Wlpairi4OKxatQrV1dVu5+3s8gFI/QwGA5KTk9u8uz89PR0VFRUICQlBVlYW7HY70tPTO7XOJUuWSPuUnZ0ta0NrUJ00aRIMBgNv3iIiom5RbVjduXOncpLbaT3JbDbj5ptvhl6vl00PDAzE//7v/wKto6snT56UtYs6W6+qbR2J3b59e6der7/+OgYMGKBcnEc6qgNtamrC7t272w07F0J729nU1ITXXnsNo0ePxpAhQ5CSkoKamhpZH3c0Gg3y8vI8Dr35+fnIzc3FggULXD50aDQaZGdny0JYUlISAgICUF1dLevrPCobGRkJg8GAw4cPY+nSpdJ2iPMWFRUBXVh+enq69PPs2bNRW1uLsrIyWb+OdGadt9xyi8tIs8g5qLoLskRERJ2h2rB6oZ04cQLvvvsupk2bJhtVFU2dOhVDhw7FgQMHsH37dmUz0IV6VS8vLwwaNAg6na5Tr64GVXRQB7pv3z4888wzyM3NdRlJa8++ffvw+OOPd+q1b98+5WJk2tvOf/3rX9BqtdizZw++/vpr1NXVIS0tzeNL+56w2WyYN28exo8fL5WBuCNe2tZqtdKl9fLyclkfg8Eg+1mv1yMgIMCj0cauLF+n0yEgIMCln6c8WafyA53oxx9/RHJyMoMqERH1GNWG1XHjxiknuZ3WUz744APcfPPNGD58uLIJABASEiJdbl2zZo3LNyP9/PPP+PLLL6HX63HttdfK2tSkoqIC33//Pe644w74+PjI2m699VasXLkS99xzj2x6R4YPH45FixYhIyPDo9eiRYvaPM6itrazpaUFn376Kf7617/ixIkT0Gq1+OMf/4jdu3fj0KFDsmV0R25uLmpra2Wjn87E2s1JkyZh27ZtsNvt0qX1ntDby3enM+tsK6yKI7x8agIREfUU1YbVadOmITY2Fj4+PvDx8UFsbCymTZum7NYjTp48iXfffRczZsxwO6oqSk5Oxv/8z//gq6++chldrampgdVqxa233or+/fsDrTWETU1Nsn7OHA4Hli1b5jLq2NFr2bJlXR5FPHDgAFpaWhAVFQW0hr+ff/4ZgiAou3rM29sbgYGBLiPAbb0CAwPh7e2tXIxMW9t51VVX4eGHH8bTTz8Nf39/5Ww9wmKxYPny5e0+UzUzMxNhYWE4cuRIm326o7eX705PrHPdunUICwvDxIkTL2oZCRERXT5UG1bRGlhzcnKQk5PTa0EVALZv344bbrjBpTZS6frrr5e247XXXoPdbpfalPWqJ06cwBNPPIHTp09LfZT69esHo9HoMvLY0ctoNHbpCwfc1YEWFRXBZDK1G9IvtI6284477sAf//hHeHt7o6mpCR9++CHuuOMODBs2TLmoTuvOM1XLyso8/qazrujt5bvT2XX2798fW7ZsYWAlIqIeo+qweiGIdzNv2LABgwYNcnlsj/K1bNkyAMDevXvx8ccfS8s5ceIEfH19cd1116GpqQl//etfYTAYMGjQIKe1yXW1ZnXQoEFdCpfnzp1DfX09hg4dioEDB6KyshKvv/46Zs2apex6UXVmO/Py8mC1WrF69Wq3l+udefLoKk+fqarX61FaWiqVHog1rj2lt5fvTk+tU6PRYP369QDAwEpERN12xYfVjz/+GHv37lVO9sj69eul0DNlyhSEhobiueeewx/+8Afo9XpMnjxZOctF1a9fP8ycORPfffcd5syZg8ceewwZGRkIDQ1Vdr2oPN3O0tJSbN68Gf/+979d2rrC1vpMVbQ+Dkr5QUXr9AzT9PR0GAwGxMTEQKvVYuLEicjNzXVb39kVvb18d3pynTqdTiqVCQ8P57NViYioy7yE7hQrkkxTUxNOnToFrVbrcvPSxWAymaDX610eMeRwOHD27FkMGjQIffr0kbWh9ZFN8+bNw/bt29sdXext7W1nZWUl/va3v2Hx4sXQarUoLCyETqfDiBEjpD5t7T8RERFdOq74kdWeJN5opIag2h6NRoPBgwe7BEC1aWs7KysrMXfuXERGRmL79u0wm83YsmULBg4cKOtHRERElz6GVZIcO3YMTz75JJ588klUVVUhMTERr7zyChobG5VdLxpBELB06VJs27YNs2fPxkMPPYSHHnoIR48e7dbzZ4mIiEidWAZwGbvSL4Nf6ftPRER0OeDIKhERERGpFkdWL2Pnzp2Dl5dXhw/gv1xd6ftPRER0OWBYJSIiIiLVYhkAEREREakWwyoRERERqRbDKhERERGpFsMqEREREakWwyoRERERqRbDKhERERGpFsMqEREREakWwyoRERERqRbDKhERERGpFsMqEREREakWwyoRERERqRbDKhERERGpFsMqEREREakWwyoRERERqRbDKhERERGpFsMqEREREakWwyoRERERqRbDKhERERGpFsOqithsNkRERMBkMimbiFyI50t+fr6yiYiI6LLBsNpNDocDCQkJ0Gq1bb4SEhLgcDiUs9JFZDKZEBERAZvNpmxyYTKZEBQUBIvFomy6bIjB19Nz1mKxICgoSHaeq+lDVm988BP3uSeXSUREHWNY7SaNRoO8vDzY7XbY7XYUFxfD19cXmzdvlqbl5eVBo9EoZ72iiSHfaDQCnQyPF5LFYsHatWuxbds2REZGStOdt1cMMZfqCKfNZsPEiRORmpoKu92O6upqAMDUqVPbDKylpaXYtm2bdI5v3rwZmZmZl3WQi4yMxLZt27B27drL+oMLEZHaMKzSFSk9PR379++HTqdTNsmsWbMG0dHRsqB6ucnNzUVYWBjS0tKA1g9gS5cuRWlpKYqLi5XdAQAzZ86UHZP4+HgkJSWhoKCgzYB7Iel0Ouzfvx/p6enKpm6JjIxEdHQ01qxZo2wiIqJewrBKF4U4Ip2dnQ10IjxeSDabDSUlJTAYDMom2fZGRkaipqYG8fHxym6q53A4UFBQgLi4ONno/7BhwxAVFQWz2Szr3x69Xq+cdFkyGAwoKSlR3VUAIqLLlarD6saNG5GWloa0tDRs3LhR2dyjGhoakJ2djZtuukmqwVu/fr10ubqjGj5PmEwmWY2fp5e9lfWBym0xGo0wGo3Iz8+XLdddPW1b8yrXobycq6xp1Gq17V72drducZltXfLPz8+X1YZaLBZERESgpKREWpbzdhmNxna3Rzwe4st5nW1tg7OysjIAwKhRo5RNHb6Xzjc/idtpNBpl052X0VZNrHI9yvdFSXwfxe0xdVBve+jQIZSWlroETY1Gg9DQUFRWVnp83peXlyM0NLTDkhflPjmfk+7OM7FUROTJOSsux2QyuZScOHNXwtHReSWeD+L5QUREvUu1YXXjxo0oLCxEY2MjGhsbUVhY2GuBtbKyEnfddRe2bt2Kjz/+WKrDmzFjhrJrl4h/LNeuXYuKigpp+dHR0Rg5cmSbQQKtgSsmJgYbNmxot56wpKQEhYWFsNvt0ohfcXEx4uLipPVVVFTAarVi7ty5Tmv4v8vAGRkZOHLkiKz+UPwjraxpFPu0xeFwYOrUqQgNDZX6FxcXQ6vVKrt65JlnnsHSpUtht9uRnp4uHc/KykpUV1dL25OYmChtc35+PlJSUlBcXCxtQ3JysnLR7SovL0d0dLRstLez7+WSJUtgMBhgt9ulUWQASExMBABpfoPBgOTkZFngNRqNsvUUFxdj+fLlbQZWi8WCSZMmwWAwdGqUOiAgAMHBwcrJLgG2PSaTCSUlJcjKylI2yZhMJtk+VVdX484775Tac3NzsWLFCtl5YzabXfa5o3PWmUajQVxcnNvR0DVr1iAqKgoxMTEenVcA4Ofnh7CwMJSXl8uWRUREvUO1YXXnzp3KSW6ndZfdbsejjz6KU6dO4bXXXsP1118vaxcvV3fnJqni4mJYrVZs375dFiBWrlyJqKioNuvfHA4HVq1ahaSkJOkSc3v1hE899ZTs5/j4eFnNnk6nQ2pqqstoWUhICNavXy/tX0xMDMaPHy9dAhb/wE+YMEGaJz4+vs3L3qdPn4bVapVdPo+MjMTMmTNl/TxRW1uLqVOnyuoji4uLUVpaiqVLl0rbLNZMrlq1Cg6HA+Xl5YiKisKwYcOk+RYtWuRxgENrWFXq7Ht5yy23uD1OSUlJsvdm9uzZqK2tlUbrLBYLzGYzVqxYIa0nMjISCxYswNq1a11Cl3NQdQ7F6enpqKmp6XLNrdVqxenTp5WTAcUIZHl5uUcBWfkBQKPRYPHixdL7mJ6eLjtekZGRMBgMLu9FR+esUlJSEtAackW21jIPsQTCk/MKTqPOym0iIqLeodqweqF8/PHH+PTTT9G3b1+YTCY8/vjjePzxx/H2228ru3aZ2Wx2GaFDByM+aL1Ea7VaMXv2bNl0nU6HgIAA2R/LsLAw+Pn5yfqJnENFZmamSwBRbpvyErDYphz5a4s48pSSkuIy0tgVyhE+s9kMg8HgEsD0er20b3q9Hjt27HAZRe4sd+tWHi+0814q5xcp62CV72lRUZE04udMr9ejtrZWto4ff/wRycnJLkG1J7R3XmVnZ8tGht1dslfS6/XIzc11GSl1piwhyc3NdfmApXwPlOeskk6nQ3R0tOwGMPGDgRhkPTmvnKcREdGFodqwOm7cOOUkt9O664svvgAA/P73v0dsbCwmTpyIiRMn4pe//KWya5c4HA5UVlYqJ3ukuroaVVVViImJkdXQhYeHo6qqStbXXa2gWBsIp8vNHV2mdUen02HPnj0ICwtDeHi42zo+Z+JotMFgkLa9vXDSHuUlavF45ubmyo6JGMRF8fHx0iVkrZua0q7oynvZ1VBTXl6OHTt2IDg4WLaPYvmAM3GEtivvLVpHr8XyEmedGTmMj4/H5s2bYTab2/2Akp6eLl2y17ZRQx0cHCwrXxHDZHcZDAaUlpbi0KFDgOKDh6fnFRERXXiqDavTpk1DbGwsfHx84OPjg9jYWEybNk3Zrdvsdjt8fX3x29/+FgaDQXoNHTpU2bVLxBGfrggODkZISIis7tL51d5jeSwWC5YvX47Nmzf3yGibGEDFwJuYmNhhABVH3sRwIo66dTXAwel4JiUluRwPu1O9LlovIdfU1KC6uhphYWFua0o74hzYuvNedpZer8f48eOl2knnl/Ky/rp16xAWFoaJEyd2OpArR3RFYnhz9yGoLeKHCnfB11l8fDzsTjXUo0ePhs1mQ35+PsxmM4qLi9s9t7sqJiYGUVFRKCoqkkoAxBHuzpxX6GSQJyKi7lFtWEVrYM3JyUFOTk6vBFU4Bafz588rm3qMXq93uTwMp8cGKS9pisRpRUVFyqYuEdfXXenp6UhKSvL4D3Z8fDyysrJkl2iVl7LROtLlibaOZ1s0Gg3Wr1+PgICADoOUM3ehuq11d/RedpZer5eNAranf//+2LJlS5cCq7vL43B6SoCyXKE94rF1d7OWOzqdDps2bQKc6qKVxFDZE8RSjYKCAqxduxZhYWGyMou23tu2uDs/iIio56k6rF4IU6ZMwYABA5CXlwdBEAAAgiDg2LFjaGpqkurnlJcrOyMtLc1tkJg7dy6sVmubl291rTdEKe9ydjgcWLJkSbvbI46YOQfAnJwc7NixQ9bPExaLBevWrZN+FgNEW3+sbTYbnn/+eelnMciJo3SjRo1CQEAAMjIypH3Iz8+X3fzSHvGy8IwZM2THID8/XzpO69atk42ilpWVoba21uMghTbCS1ffy84SRwGVdcLK90IkBnIAsm3r6NFVaL25q7S0FDk5OUDr+5WRkQGDwSDd7OS8HJvNBqPRKDv2FosFKSkpWLBggUvNp7Pnn39etj/iBzGdTie9N84fzjIzM11KXrpjwoQJsFqtyM3NdXm2rCfnFTw4/4mIqGdd8WF16NCheOutt/D+++/jnnvuweOPP47Y2Fj8/e9/R3Nzs7J7l4iX0KOjo6WaT61Wi8rKSuzZs6fdkTixxi8xMVGaLzg4GLfddlu7l2fFUSuxZlPbWrva1TCVkZEhLSc8PBypqantXqrdtGmTbHtDQ0OlcgRx20pLS6WaTLPZ3O7jsJyJNbRoHcUT17Nq1SpppMxut8tqfVNSUly+MrUj7p6n2Z33sjPaWk9ycjLuvfdeZXeg9bhs374dABAeHt5uXbEz8WtEly9f7vb9UhL30fnYi49Xa++cQOtj4pz3Z+3atdKTFSIjI7FhwwapnlWr1cJgMPRYzSqcvoGqtrZW9nQLeHheoYPn7xIRUc/zEsThxCucIAg4deoUzp07h4EDB8LHx0fZha5AYp1tW8GNLj3dfU+7Oz8REXXOFT+yKvLy8sKgQYOg0+kYVEkye/ZslJSUtHsZnS4d4vNrO1OL68xisaCkpMTlcXJERNR7GFaJ2hEZGYnU1FRMmjSJgfUy4PyNVZ0lfvFCampqp8pJiIioe1gGQESXPaPRiNzcXIwfPx5btmxpt96biIjUhWGViIiIiFSLZQBEREREpFoMq0RERESkWgyrRERERKRaDKtEREREpFoMq0RERESkWgyrRERERKRaDKtEREREpFoMq0RERESkWgyrRERERKRaDKtEREREpFoMq0RERESkWgyrRERERKRaDKtEREREpFoMq0RERESkWgyrRERERKRaDKtEREREpFoMq0RERESkWgyrRERERKRaDKtEREREpFpegiAIyolXktraWnz11VfQ6/Xw9vYGABw6dAiBgYG46aabpH5nz55FSUkJmpqaMGzYMBw/fhxBQUEYMWKE09KIiIiIqCdd8SOrx48fh9lsxsSJExEeHo6RI0di3bp1+Omnn1z6rVmzBsnJyRgzZgxWrlyJH374QdaHqCtsNhsiIiJgMpmUTRKxT35+vrKJiIjosnbFh9Vbb70Vr776Kh555BEAgMFgwIYNGzBu3DhZv2HDhuHll1/GiBEjUFhYiP/85z9ISEiQ9blYLBYLgoKCYDQalU0AgPz8fAQFBcFisSibiIiIiFTtig+rohtuuAFoLQtobGxUNkMQBGRnZ2PWrFmIiopSNl9UkZGRWLBgAUpKSmCz2WRtDocDq1atwoIFCxAZGSlru5hsNhuMRiMcDgfQGqjbCts9gSOTRERElyaG1VZ+fn7w8vLC2bNn0dLSomxGaWkprFYrHnjgAWWTKiQlJQEAcnNzZdOLi4thtVqldrXQ6XQwGAwIDg6GVqvFqlWrsHLlSmU3IiIiusIxrLby9/eHj48PrFYrTp8+LWtzOBxYuXIl5syZA41GI2tTC51Oh9TUVKxdu1YaXRVHVVNTU6HT6ZSzXHTx8fGw2+2w2+3Iy8tT7bElIiKii0fVYXXjxo1IS0tDWloaNm7cqGzuUYMHD4a/vz8cDgfq6+tlbW+99Rauv/563HnnnbLpF4rD4UBCQgISEhKky+buKEdXlaOq4qVwrVYrvZwvvTtfKjeZTLJ+ypt/TCYTEhISUFJSgqCgIKkmVtxW53ndbbdYZ+vcZ8mSJYiIiJDCtthHvHTf1vZ1VI9rNBoRHh6OqqoqJCYmtrnf4vKctwGt2xEREYGSkhLZvonL8GRbjEaj7Jh0pxyhvfUpj5lyvcr5PLm5i4iI6GJSbVjduHEjCgsL0djYiMbGRhQWFvZqYPXx8YFWq0VjY6MsWB05cgTvv/8+HnvsMXh5ecnmURtxdLWgoAA2m81lVDU3NxcrVqyQRjOLi4thNptdgsqSJUsAQOq3efNmZGZmuvSzWq147bXXcOTIEdTU1CAyMhLFxcWIi4uT5q2oqIDVasXcuXOl+fLz8xETE4MNGzZI/eLi4vDiiy/Klt+WxMREwGn7DAYDkpOTXep1RdnZ2aioqEBISAg2b94Mu92O7OxsoDXcjRw5EqmpqdLyoqOjMXHiRNnyamtr8fvf/x5Lly6Vjklubi7Gjh2L8vLyNrdFDO+VlZWorq6W5k1MTOxSYO3Kvot97a3vua+vr+pqmImIiNqi2rC6c+dO5SS303qKj48PrrnmGjQ0NKCmpgYA0NzcjNWrV+Ohhx7CtddeC0EQUF1djfz8fBw8eFC5iF6j0WiQl5fn0aXypKQkWK1WZGZmutSqpqenIz4+Xvo5MjISBoMB5eXl0jQAuOWWW5Ceni79HB8fj6ysLFmJAVoD3DPPPCPbpvj4eNm8YoCurKyEw+GQShOysrJk25Kenu5xXW1SUpJsHbNnz0ZtbS3Kyspk/TyxZs0aREVFIS0tTZqWlZUFuKn/dQ54MTExGD9+PH7++WepP9xsS3FxMUpLS7F06VLpOMXHxyMpKQmrVq1yGXHuSHf23eFwICMjAwaDQbYMIiIiNVNtWL3QNBoNQkNDAQCHDx8GAJSUlODMmTOYPHkyAKClpQVffvkl5s2bh7y8PNn8aiGGw9zcXLe1qsrL9Lm5uVKQFBkMBtk8AKDX61FbWysLqwEBAS7LFzlffhaD8+nTp3Ho0CGUlpZCr9crZ3E7zR3l9ul0OgQEBLiE7o7YbDaUlJS41CL7+fkhLCxMtryAgABMmDBB+lk8X8LCwuDn5ydNVzKbzTAYDC6jmHq93m19dEe6s+9z586F1WqVhWsiIiK1U21YVT7ntK1pPenaa68FANTV1aGurg6rV6/Go48+Kn2zVd++fTFlyhRER0cr5lQXvV4PX19fWbhCa4AMDg6WXab3dDTTHXdBTaynhNOlaudwVF1dDQAIDg6Wpl0sNpsNtbW1Uh2r+AoODsaOHTuU3TvN4XCgsrISubm5LjWjmZmZyu69Kj8/XyoDaesDBhERkRqpNqxOmzYNsbGx8PHxgY+PD2JjYzFt2jRltx41aNAgAEBVVRXeeOMNjB07Frfeequy2yUpPz8fZrMZxcXFXb4E3N5IKlrrP5cvX47NmzdLNaFqJo5KinWsyld390EcfU1KSnJZtt1ux/79+9s9nj3FZrNh3rx5SEpKkpVeEBERXQpUG1bRGlhzcnKQk5PT60EVTl8MsHXrVhQWFmL69Olt3lTV2NiILVu24PHHH8eaNWuky7mCIGDnzp14+umnkZycjL///e84e/asNN/x48exbNkyPPbYY3juuefwzjvvSPN98sknmDFjBh5//HGPLut2l3gZXMlsNisnwWw2ux1J7YjD4UBBQYH086hRoxAQEICioqJ2+10I4uV+d/vbU/R6vdsva7iQxFFcXv4nIqJLkarD6oUWFBQEX19fNDU1Yf78+dJIqzuff/45xo4di1deeQWDBw9GYmIi6urqcPLkScyePRvXXXcd/vWvf8HhcCAlJQUNDQ2w2+3IyMjAQw89hNWrV+P222+HzWaDIAh45ZVXsHXrVmRnZ+PJJ59EWloaDhw4AHTi0VXtES+7O4fEzMxMVFVVOfX6P7m5ubI71U0mE3Jzc11qO5XEkUrn8JeTkyO7pC7W1GZmZsrWoezX09wFU41Ggzlz5iA3N9flSQfPP/98jwRMscxixowZsvcuPz+/S08D6Cxe/icioksdw6oTjUYDHx8fTJ8+vcO61AkTJuDaa6+Fl5cX7r77bjgcDpjNZgwePBhvvPEGkpKS4OXlhQkTJqCyshL19fVobGzEgQMH8MEHH+DkyZMYP3487rvvPhw7dgw5OTkwGAzw9vbGkCFDMGzYMBQWFipX22WRkZHYsGEDMjMzpbpJg8HgtmZ13bp1WLVqldRv+fLlKC4u7vASsk6nw6ZNm2A2m6V54WZELz09HVlZWbJaUXf9epJzMNU6PSM1Pj4excXFWL58uaymVKPR9Ei40+l02LNnD9D6gUFc/qpVqxATE6Ps3qMsFgtSUlKA1kdeOe+f8vmsREREauUlCIKgnHilamhowO7duxEZGQl/f39ls8RoNEKv10u1nw6HA1OnTkVoaCiys7NRXl6OF198EWfPnoWXlxf279+Pjz76CDqdDlu2bMFjjz2GhoYGDBkyBP/4xz9w/vx5TJ48GePHj8c111wjref+++9HXFyc05p7l81mw8SJE7FixYoOg2lvMJlMKCgowJYtW9odwSUiIqIrB0dWnYh30LcXVNuj1Wrx9ddf4w9/+IP0+Kinn34aGo0Gzc3NqK+vx/Dhw/Hjjz/i66+/xq9+9SssXrwYTU1N6NOnD1JTU/G3v/1Nel3IoHqxiTWroaGhDKpEREQkYVjtolOnTkEclLbZbDh+/DimTp2KkpIS+Pn5ITw8HABw7NgxnDp1Ct988w0+/fRTvPTSS3A4HBgyZAgefvhh+Pv7Y+jQoRg9ejR27twpLXP//v149913Zeu8XDz11FMul6D5DFAiIiJyh2G1C/z8/KDVarF06VK8+eabSE1NxYIFCzB69GhMmTIFgiBg0aJFyMnJwVdffYWBAwdi7dq1GDBgAI4ePYp58+bh3//+N1566SX8/ve/R0BAAFatWoWysjI8/PDDWLt2LXJzc3H33XcrV31ZuPbaaxETEyOroaysrMSePXt6pE6UiIiILh+sWe2GpqYm/Pzzzxg4cKD0xQFofQzVqVOn8Itf/EJ2SbulpQXnz58HALfzofVyeHNzMwYMGCCbTkRERHQlYlglIiIiItViGQARERERqRbDKhERERGpFsMqEREREakWwyoRERERqRbDKhERERGpFsMqEREREakWwyoRERERqRbDKhERERGpFsMqEREREakWwyoRERERqRbDKhERERGpFsMqEREREakWwyoRERERqRbDKhERERGpFsMqEREREakWwyoRERERqRbDKhERERGpFsMqEREREakWwyoRERERqZaXIAiCcuKVpLa2Fl999RX0ej28vb0BAIcOHUJgYCBuuukmqd/Zs2dRUlKCpqYmDBs2DMePH0dQUBBGjBjhtDQiIiIi6klX/Mjq8ePHYTabMXHiRISHh2PkyJFYt24dfvrpJ5d+a9asQXJyMsaMGYOVK1fihx9+kPW5XFgsFkRERMBisSibVOVS2c6eYDQaYTQalZMvOUajEQkJCXA4HMqmS15H75HNZkNERARMJpOyiYiI2nHFh9Vbb70Vr776Kh555BEAgMFgwIYNGzBu3DhZv2HDhuHll1/GiBEjUFhYiP/85z9ISEiQ9bkUOBwOJCQkQKvVurza+0NL/8dkMiEoKOiKCMh0afHkg4DRaERERARsNpuyiYhIta74sCq64YYbgNaygMbGRmUzBEFAdnY2Zs2ahaioKGXzJScpKQl2u132ys7OVnbrMpPJ1OEfzkuNxWLB2rVrsW3bNkRGRiqbiVQvOzsb0dHRyMzMVDYREakWw2orPz8/eHl54ezZs2hpaVE2o7S0FFarFQ888ICyia4Qa9asQXR0NIMqqVJ2djby8vKg0WiUTTKzZ89GSUkJrw4Q0SWDYbWVv78/fHx8YLVacfr0aVmbw+HAypUrMWfOnA7/ENDlyWazoaSkBAaDQdlEdEkZNmwYwsLCUFRUpGwiIlIlVYfVjRs3Ii0tDWlpadi4caOyuUcNHjwY/v7+cDgcqK+vl7W99dZbuP7663HnnXfKpquNWI/aG5ff8/PzodVqpWW7q301mUywWCwICgpCZmYmduzYgeDgYKnGU7whqqSkRJpXvNlEXL7zKz8/X7kZbTIajdJ8ypo8k8kkTXO33W3N56ysrAwAMGrUKNl0k8kkW4by2IvHo6128aYcZb+ObsJx3o/8/Hzp5p38/HzpWDjXICuPr7u6265ui8iTdTgT98FdrbSy/lIsKzl8+DAiIiKkdbibVzwWztsi7oO791/5nrRF+V53dFyU71FblMdbuT2evi9tHbOSkhIEBQVJ74dGo0FcXBwKCgo82m8iootNtWF148aNKCwsRGNjIxobG1FYWNirgdXHxwdarRaNjY2y/8CPHDmC999/H4899hgAoLq6Gvn5+Th48KDT3Je3/Px8JCYmIisrC3l5eQCAqVOnIjQ0VKp3LS4uhlarRWRkJGpqapCVlYXx48ejuroaNTU1skvnzzzzDJYuXQq73Y709HQ4HA6YzWZUVFRIy8vKykJKSkq7YQetNcYxMTEwGAyw2+2orq5GWFgYZsyY4fYPsUajQV5enqxWd/PmzQCAFStWQKfTKWcBAJSXlyM6OlrWbjKZsHbtWmm7q6urZR9o8vPzERMTgw0bNkjtaD12ztuWm5uLjIwMHDlyRNqezMzMNgOOw+HA1KlTYbVaUVFRgfj4eKltyZIl0rEQa5CNRiNSUlJQXFws7fOCBQsQExPjso7ObouoM+voqh07duD+++/H9u3bYW8958xmsyy0WSwWjBw5EtHR0dJ2iOcmABQXFyMuLk5qq6iogNVqxdy5c53W5MpoNMre6+LiYixfvtwlMIrae4+c9dY5IrJarXjttddw5MgR2e+hXq93exWJiEiNVBtWd+7cqZzkdlpP8fHxwTXXXIOGhgbU1NQAAJqbm7F69Wo89NBDuPbaa9HS0oIvv/wS8+bNk0KbmohBzJO6tdzcXNkoUVujP85BNT09HQBw+vRpWK1W2SXxyMhIzJw502lO92prazF16lRZeNVoNMjOzpYFwaSkJAQEBEh/vNuTlZUlhQGNRoM5c+agtLQUhw4dUnZ1YbPZMG/ePNky3CkvL1dOcgmwGo0GixcvhkajgcPhwKpVq5CUlCTbtqVLl6K0tBTFxcXSckJCQrB+/XrpPYuJicH48eNhNpulPiLnELR9+3aXcH3LLbfI9sNisaCkpMTlprD09HQkJSVh1apVslDUmW0RdXYdXeXr64tNmzZJ+xwZGQmDwSCNEDocDmRkZMBgMMhuFnQ+N+Pj46XzGAB0Oh1SU1NRWVnZ5jZaLBaYzWbZh5nIyEgsWLAAa9eudRmN7+g9EvXWOeKstrYWzzzzjMv/B8HBwUDr+U9EpHaqDasXmkajQWhoKADg8OHDAICSkhKcOXMGkydPBgD07dsXU6ZMQXR0tGzeS5G7pwEow1ppaSlSUlJkQRWtN6OFhYV5NPLpjl6vV04CFJdDw8PDUVVV5TYkOgsICMCECRNk08Q/xB0FXYfDgRkzZiAsLAxpaWnKZhfK7dbr9cjNzXU7unbo0CFYrVbMnj1bNl2n0yEgIEC2X8oRW/FcdBeg5s6d224IUm5jUVERwsLCMGzYMNl0tD6mTRnqO7Mtos6uo6uioqJc1uE8Qnjo0CGUlpZ6VFfsXDaSmZnZ7ihjUVERoqKiEBMTI5uu1+tRW1vrEvg6eo9EvXWOOAsICHC7DTqdDv7+/srJRESqpNqwqnzOaVvTetK1114LAKirq0NdXR1Wr16NRx99VPpmqytJbW0t0tPTERUV5RLkxBFcg8GAmJgYt/VzbQkICJDCpEisMZw0aRK2bdsmXZ4NCQmR9etpOTk5KC0txdKlS11GnjyRnp4uXY5V1hpWV1ejqqpKOj7iSwzhXZGbm4vc3Nx2yxWUYbWjsN8TLsQ6PCF+OFGeX87EulMA0oe0rKwsZTeZ8vJyqf7a+b1MTExUdvXoPRL1xjmiFBYWBj8/P+VkIqJLimrD6rRp0xAbGwsfHx/4+PggNjYW06ZNU3brUYMGDQIAVFVV4Y033sDYsWNx6623KrsBABobG7FlyxY8/vjjWLNmjWxUpqGhAW+//TYefvhhzJ07V/pjfurUKbz66qt4+umncfDgQWn+9957Dy0tLWhubsaHH36IuXPn4s033wRaSx/mz5+PV155BY2NjWhpacEHH3yAefPmYf78+Xjuuedw8uRJad09JSAgAJs3b4bVanWpnxNlZ2fL6ufc3eziiczMTISFheHIkSMX7LFQFosFy5cvx4IFCzxep7tQFh8fL6t9HD16NGw2G4KDgxESEiKr4XR+OY9UeyopKQlZWVlITEx0W7LhjjK89oaursP5akZPCA4ORkBAgHKyRHzPN2/e3KlnCuv1eqn+Wvk+KuuxO/Me9cY54imbzYZTp04pJxMRqZJqwypaA2tOTg5ycnJ6PajC6YsBtm7disLCQkyfPh1eXl7KbgCAzz//HGPHjsUrr7yCwYMHIzExEXV1dXA4HNLNWGvWrMHixYuxaNEifP755+jfvz+ioqLw/vvv45VXXkFMTAwWLVqEF154AcXFxejTpw9++ctf4vDhw1J97vDhw9HS0oJt27ahpaUFW7duRUVFBVasWIE///nPOHnypNvnwvaE4OBgbN++vd3AitbAlpWV1eElyc4oKyvrsdElJbG20d2ocVs6CmQ6nQ6bNm0CWoOAOKrW048HSk9P9zgMoXW727oMbzab3V5a76zurkN53oiPCeusrhxzh8OBgoIC5WSZ9vbPHU/fo65sb0/y9/fvcPSXiEgNVB1WL7SgoCD4+vqiqakJ8+fPl0Za3ZkwYQKuvfZaeHl54e6774aj9Y72/Px8fPvtt5gwYQK8vLzg7++PcePGYcmSJTh37hzCwsJw1VVX4Z577kFQUBA0Gg0GDhwIi8UCLy8vBAcHy/6ADBo0SDb6ZLPZkJ+fj2+++QZ9+vRBeno6BgwYAPTSo6vEEFZaWioFVpvNhueff17qI/7BDw0NlS6nd+YPvLKveNNTb+nK5X+9Xo+SkhJZfeLzzz8v+1kMHTqdDrrWG3eUd2w7HA4sWbKkW++PeONSR2EIrR8kDAYDJk2aJKsvNplMMJvNnToGbenOOgwGA3bs2IGcnBxpWmZmZpc+qOh0OqxYsQKZmZkuTwhYt26dVAvqfFNSTk4OduzYIf3sTkxMDKKiopCcnCx7v8XluuPJe9Sb50hHioqKMGDAAJYIENElgWHViUajgY+PD6ZPn96pm6i8vb2h0WjwxRdfoLKyEgEBAfDx8ZH1Ud7A0dU62AceeABarRbjxo1DYGAgNmzYgL59+yq7dcjd0wDaCrmRkZHYtm0bSktLMXToUHz33XfYtGmTNF9wcDBCQ0Nll1bFP/AxMTEdPm8zPT1dVv86ceJE5Obm9krNan5+PjIzM9HQ0OBSK9jec1bF56uKz1tF64hgeHi4NP/atWtlN9WINa2JiYmyY3Xbbbe1Gd48lZ2dLYWhjsovsrOzpcdIOW/r119/7XEJREe6ug5xVF6s+9VqtTAYDEhKSlJ29Uh8fLz0WClxeZMmTUJUVJT0wctsNkttaH2aRHvEGu3o6GjZ+52cnIx7771X2V3iyXvUm+dIW8QPl3Fxcb22DiKinuQlCIKgnHilamhowO7duxEZGdnunbJGoxF6vV6qKXO0PqpmxIgRuP766/Hmm28iPz9fqp8zmUx444038Mknn+D8+fOYOHEiVqxYgfj4eGneuLg4aXniHzYx/JlMJhQUFGDLli2oqamBv78/rr76ahQWFmLhwoV4+eWXERcXJ20f9Q7l+0J0KbJYLEhOTsamTZva/SBBRKQWHFl14uvriwkTJrQbVEWnTp2CmPNtNhuOHz+OqVOnIjY2FgCkZ7UKgoDjx48jPj4egwcPli2jLeKID5zmF33wwQcoLCyERqPB5MmTXR43Rb2H36lOl4M1a9YgOjqaQZWILhl9/vznP/9ZOZHa99lnnyEgIACffvoprFYrlixZgieeeAKTJk3C4MGDER4ejkWLFqG+vh4bNmyAl5cXlixZApvNhieeeAJlZWUoLS2Fv78/Xn/9deTl5eGbb75Bv379EBUVhYCAAOTm5uIXv/gFPvnkE3z55ZfYsWMHDh8+jEGDBmHjxo3473//iy+++AJHjhzBrFmz8Itf/EK5mdTDdDodzp07h4cffhhxcXG8OYUuOUajESUlJdiwYQP69++vbCYiUiWWAXRDU1MTfv75ZwwcONClBlUQBJw6dQr9+vVzqV/1hPOyz507B7TWzp07dw7e3t6w2+0AIN1cRURERHQ5YlglIiIiItVizSoRERERqRbDKhERERGpFsMqEREREakWwyoRERERqRbDKhERERGpFsMqEREREakWwyoRERERqRbDKhERERGpFsMqEREREakWwyoRERERqRbDKhERERGpFsMqEREREakWwyoRERERqRbDKhERERGpFsMqEREREakWwyoRERERqRbDKhERERGpFsMqEREREakWwyoRERERqZaXIAiCcuKVpLa2Fl999RX0ej28vb0BAIcOHUJgYCBuuukmqd/Zs2dRUlKCpqYmDBs2DMePH0dQUBBGjBjhtDQiIiIi6klX/Mjq8ePHYTabMXHiRISHh2PkyJFYt24dfvrpJ5d+a9asQXJyMsaMGYOVK1fihx9+kPWhS4/RaERCQgIcDoeyqVeYTKZeWZ/NZkNERARMJpOyyYXJZEJERARsNpuy6YLxZHsv9HtzqRCPXX5+vrKpXb117hER9bYrPqzeeuutePXVV/HII48AAAwGAzZs2IBx48bJ+g0bNgwvv/wyRowYgcLCQvznP/9BQkKCrM+lzmg0QqvVyl7thQminuJJeCUioivTFR9WRTfccAPQWhbQ2NiobIYgCMjOzsasWbMQFRWlbL6kiUEBAOx2u/TavHmzsisRERHRBcWw2srPzw9eXl44e/YsWlpalM0oLS2F1WrFAw88oGy65OXm5gIAsrKyZNPj4+ORnp4um0bUG3Q6Hfbv38/zjYiIXDCstvL394ePjw+sVitOnz4ta3M4HFi5ciXmzJkDjUYja7sclJeXIywsDH5+fsomIiIiootK1WF148aNSEtLQ1paGjZu3Khs7lGDBw+Gv78/HA4H6uvrZW1vvfUWrr/+etx5552y6ZcC8RK/0WhUNkkMBgN27NiB4uJiZZOL/Px8WU1rUFAQLBaLrI/RaITRaITFYkFQUJDb+te2ahQdDgcSEhJctlfs35l6Wk+2VUlcv/N8yptSxBtVSkpKEBQUJC3Xk3ndEWuFO9ofk8nUqf0H4PIeJCQk4MyZM8puLsfX0xuwPJ1PWQ/94YcfytrbOh+UOlqfxWJBREQELBaLbJ3Kfs7aOufgdPzEm5mU74HynGpr/VqtVnZDlPNNUmI/cf3K81Y5rzvidra3nyLlMVTut/MNeMrzx/klzqeGG/aI6PKm2rC6ceNGFBYWorGxEY2NjSgsLOzVwOrj4wOtVovGxkZZuDhy5Ajef/99PPbYYwCA6upq5Ofn4+DBg05zX9ri4+ORlJSExMTEdsOV0WhESkoKiouLpbrWBQsWICYmxuWPaW5uLjIyMnDkyBGp/jUzM9OlnycsFgtGjhyJ6Ohoab3FxcXQarXKrpLObKuz4uJixMXFSfNUVFTAarVi7ty5sn5WqxWvvfYajhw5gpqaGkRGRno8rzOj0Qiz2Yzi4uJ2L4EbjUasXbsWFRUV0v4vX7683XCXn5+PmJgYbNiwQdqmuLg4vPjii7J+4vFNTU2V+kVHR2PixIntBhBP5hODYGVlJaqrq6XjsmLFClRVVSkX2S5P1ofWuvOYmBgYDAbY7XZUV1cjLCwMM2bMcHtuazQaxMXFoaSkxGV/16xZg6ioKMTExMBms6G8vFzaD7vdDoPBgOTkZJf5kpOTpfXb7XZkZWUhMTHR5dxbsmSJ1C87OxsOhwNms1l6n8V5U1JS2vygZbFYMGnSJBgMBuzfvx86nU7ZRbJjxw7cf//92L59O+yt55HZbG7zPIqMjERNTY20LXa7HUlJSQgJCXEpGyIi6i2qDas7d+5UTnI7raf4+PjgmmuuQUNDA2pqagAAzc3NWL16NR566CFce+21aGlpwZdffol58+YhLy9PuQhVEmsBs7OzlU0y2dnZ2Lx5M3bs2IHg4GCX0GqxWFBSUoJt27YhMjJSmp6eno6kpCSsWrVK1j8kJATr16+XyiZiYmIwfvx4mM1mqY8nHA4HMjIyYDAYZPsQGRmJmTNnyvqKOrutzpR1ujqdDqmpqaisrJTNU1tbi2eeeUZWFuLpvCIxqCq3U8liscBsNmPFihVSEImMjMSCBQuwdu1al6CE1uO2atUqZGVlIT4+XpouHgNnYiBLS0uTpolBRKxndseT+YqLi2G1WmXngk6nw6ZNm+Dr6yvN5wlP1uc8XdxvjUaDOXPmoLS0FIcOHZL1E4nHxHk5NpsNJSUliIuLg0ajgU6nQ3Z2tuw9nz17ttRXVFtbi9TUVLfHXXnu3XLLLbJ+Go0G2dnZssCZlJSEgIAAVFdXS9NEzkG1o99xAPD19cWmTZtk55HBYEBBQYHbc1QpPz8fZrNZtgwiot6m2rB6oWk0GoSGhgIADh8+DAAoKSnBmTNnMHnyZABA3759MWXKFERHR8vmvVzEx8fD3joKumPHDowePVr6I1xUVISwsDAMGzZMORsMBoNLEIiOjpb9MROPb1vBrS2HDh1CaWkpDAaDsqlNnd1Wd5wv4WZmZrrUMgcEBLT5x7qjeQFg5cqVHgVVtO6POLrnTK/Xo7a21m1YPXToEKxWKyZMmKBsgl6vl/4tBjJlPbafnx/CwsJQXl4uTXPm6Xxms9nlXEBrYA0ICJBNa4+n60Pre6Pc7+DgYKD1yog7Op0O0dHRstBWVlYGOAVZkfNl+piYGFRVVcmW6279aD3uynPB+b1w5nz5PTw8HFVVVS7vxY8//iiN4HoSVAEgKirK5ffC3Xa5Y7FYkJKSggULFnR4zhIR9STVhlXlc07bmtaTrr32WgBAXV0d6urqsHr1ajz66KPSN1tdKeLj41FRUQEAyMzMBFpvwroYxBAghg1PdGdbxZpEOD3Gy93lTnc3pHk6744dO/Diiy96/Ee/vLxcGvF2rhlMTExUdpVUV1ejtrZWOdmFzWZDbW0tEhMTZcsODg7Gjh07lN0lnszncDhQWVmpnLVLPFlfdyk/yCiDthgg582bJyvH6OwIsTNlWLW11pNOmjQJ27Ztg721bCIkJETWD62jtXDzFI/eIF7hUI5sExFdCKoNq9OmTUNsbCx8fHzg4+OD2NhYTJs2TdmtRw0aNAgAUFVVhTfeeANjx47FrbfequwmaW5uRklJCcxmMz788EOcOnUKLS0t+OCDD/DEE0/gwQcfxNtvv42mpiYAwN69e2E2m2E2m7F37140NDSgoKBA+nnnzp2YP38+3nzzTRw6dAiLFy/Gc889h+PHj+P48eN47rnnMH/+fFkYO378OJYtW4YHH3wQCxcuxNGjR522sOvES9hiHZ/yj2p3iSNiHQkODu7UCBzcBABPWSwWLF++HJs3b/Z4pErUmXnHjx+PdevWITMzs81aQWd6vR7jx4+X1UqKL7FeVsnT4yaOcG7evNll2fbWOkp3PJnP+WpFd3myvu6KiYlBVFQUioqKpJFccUTfuRylo7rQ9rj7kOMsMzMTYWFhOHLkiNv31dm6desQFhbmUrPbG3JyclBaWoqlS5delk9EISJ1U21YRWtgzcnJQU5OTq8HVTh9McDWrVtRWFiI6dOnw8vLS9lN0qdPH3z00Ud46623EBgYiP79+2P//v145JFHcN9992H9+vUoLCzEokWLIAgChg4dil27dmHZsmUIDAzE1VdfjbKyMhQVFeG6667D8OHD0dLSApPJhP379+O5556DTqfDlClTUFBQgIULFyI2NhazZs2SRs2WLVuGzz//HNnZ2fjd736H3/72tzhw4IByU7tM/OOq1+vbvHxuNpvdXl70hHIUVLzsLxJDQVFRkVOv9vXktjocDhQUFCgne6S9eRMSEqSbzjoKrO3tT1vaOm7KbRI/NHS2ltjT+fR6vdsbl8rKyjp1g5Wn6+sO8UargoICrF27FmFhYS6lF0pFRUVoaGiQTautrW3zuIeGhnY67LV1rPr3748tW7b0emAVP4h5eiWAiKinqTqsXmhBQUHw9fVFU1MT5s+fL420uiMIAt577z1cc801+Mc//oHRo0fD29sber0eW7Zswbhx4+Dt7Y34+Hh88803OHv2LAYNGoSUlBScPn0aNpsNV111Fa666irMnTsXgYGBGDRoEEJDQxEYGIjY2Fh4eXkhNDQUZ86cQVxcHLy9vaHT6VBXVyddXn3mmWewbNky9OvXD3q9HoGBgbBardJ2ipcVlY+ncWY0Gl3uUs7Pz0dmZqZUIxgfHw+DwYBJkybJ7ko2mUwwm82dHnERg0Fubq60bnH0yvmPv06nw4oVK1xCncViwbp166SfnXV1W8XRO+dAlJOT49Fl5q7MGx8fj6ysLJd9UxJH/JR3nbd3DMSRceUTGJTbpGm9+Sg3N9dlG55//vk2A5Cn84n1ns534ttsNsybN082T0c8XV93TZgwAVarFbm5udKNVXCquXYO3mKIc2f58uWyc2/u3LkoLS2Vbshqi/KDSUfHSqPRYP369QDQK4GVl/+JSA0YVp1oNBr4+Phg+vTpHd5E9Y9//ANPP/00zp8/j759+0rT+/bti5aWFsycORPTp093CRNDhw5FREQEPvroI5w8eRIAcN1118n69OnTRzaie9VVV6FPnz6yPqKBAwfivffew5QpU6Rauq5Q1gKKj31yvlM5OztbevyT2G/t2rX4+uuvuzTiIt4hLa576NChWLhwIcaPHy/rFx8fLz2qSVzvpEmT2v3a265sq671LnWz2SzNAw9rArs6b3p6uhRYlU9gEGk0GuTl5SE6Ohrh4eHS8pOTk3Hvvfcqu0vEZTu/t3CzTe6Or1arhab1Dvi2eDKfTqfD9u3bYbVapZrbiRMnIjc3120dZns8WV93RUZGIjo6GrW1tS43Sa1cuRJhYWHSe5CRkYG3337bpWY1ICAAGzZsQHJysrSNJSUl7Z57ovT0dBgMBum89eRYiccYAMLDw10+eHbH3LlzsWPHDrc10+19ACYi6lECSc6ePSts375dqKurUzbJpKWlCcuXLxf27Nkj3HLLLcKePXuktg8//FAYPXq08P333wuCIAh5eXlCfHy8UFtbK5w7d04QBEHYsmWLMHr0aOHvf/+78Mknn0jzCoIgrFy5UoiPjxfOnDkjzT98+HChurpaEARBKCsrE4YPHy6UlZUJZ86cESZPniy88MILQnNzs3DmzBkhPj5e+PDDDwWHwyFb7uWgurpaiI+Pl44FUW9IS0sT0tLSlJM94vz7SUREPYMjq058fX0xYcIE+Pv7K5tcXH311YiKisKMGTPw9NNPo66uDgCQl5eHG2+8URot/e677wAAX3zxhfRvsQ7unXfewejRo6VldtaRI0fw7bffYuzYsejTpw9+/vlnHDlyBA6Hw+W5k5cLq9Xa46NHRCLxmbadeVQaERH1rj5//vOf/6ycSO41NjbihRdewMaNG1FWVgaNRoOamhq8++67+Oc//4kbbrgBv/rVr7B69WqcOnUKX3/9NU6dOoXS0lLU1dXh/vvvly5b/vTTT7jtttswduxYaflr167FihUrUFFRAZvNhtOnT+PPf/4zjh07hoMHD8LHxwfPPvssvv/+e5SWlmLSpEn473//i3/84x/o27cvCgsL4ePjg23btiEqKgqjRo2Sbf+lrn///nj00Ufh4+MjfRMPUU/KzMyERqPB/PnzcfXVVyubO2Sz2fDOO+/gd7/7XY+VJhARXem8BEEQlBOpe1paWlBXVwc/Pz/4+PgomwEAb7zxBiZOnIjrr79e2dRpDocD//3vf+Hv79/u0wsudSaTCZmZmfD19fXoYfpEnjIajcjNzcX48eOxZcsWtzfgecJisSA5ORmbNm3i+UlE1EMYVi+gJ598Eg6HA4sWLcL777+Pxx577LIOl0RERETdxZrVCyg8PBy1tbX4y1/+AoPBwKBKRERE1AGOrBIRERGRanFklYiIiIhUi2GViIiIiFSLYZWIiIiIVIthlYiIiIhUi2GViIiIiFSLYZWIiIiIVIthlYiIiIhUi2GViIiIiFSLYZWIiIiIVIthlYiIiIhUi2GViIiIiFSLYZWIiIiIVIthlYiIiIhUi2GViIiIiFSLYZWIiIiIVIthlYiIiIhUi2GViIiIiFSLYZWIiIiIVIthlYiIiIhUi2GViIiIiFSLYZWIiIiIVIthlYiIiIhUi2GViIiIiFSLYZWIiIiIVIthlYiIiIhUi2GViIiIiFSLYZWIiIiIVIthlYiIiIhUi2GViIiIiFSLYZWIiIiIVIthlYiIiIhUi2GViIiIiFSLYZWIiIiIVIthlYiIiIhUi2GViIiIiFSLYZWIiIiIVIthlYiIiIhUi2GViIiIiFSLYZWIiIiIVIthlYiIiIhUi2GViIiIiFSLYZWIiIiIVIthlYiIiIhUi2GViIiIiFSLYZWIiIiIVIthlYiIiIhUy0sQBEE5sbedOXNGOYmIiIiIyMVFCatERERERJ5gGQARERERqRbDKhERERGpFsMqEREREakWwyoRERERqRbDKhERERGpFsMqEREREakWwyoRERERqRbDKhERERGpFsMqEREREakWwyoRERERqRbDKhERERGpFsMqEREREakWwyoRERERqRbDKhERERGpFsMqEREREakWwyoRERERqRbDKhERERGpFsMqEREREakWwyoRERERqRbDKhERERGpFsMqEREREakWwyoRERERqRbDKhERERGpFsMqEREREakWwyoRERERqRbDKhERERGpFsMqEREREakWwyoRERERqRbDKhERERGpFsMqEREREakWwyoRERERqRbDKhERERGpFsMqEREREakWwyoRERERqRbDKhERERGpFsMqEREREakWwyoRERERqRbDKhERERGpFsMqEREREakWwyoRERERqRbDKhERERGpFsMqEREREakWwyoRERERqRbDKhERERGpFsMqEREREakWwyoRERERqRbDKhERERGpFsMqEREREakWwyoRERERqRbDKhERERGpFsMqEREREakWwyoRERERqRbDKnnMZDJBq9UiIiICNptN2UxERETU41QRVpubmzFjxgxotVpotVosW7ZM2UUVjEajtI3uXkajUTmLqgmCgIyMDAwePBjvv/8+AODgwYMYNmwYfvvb38JutytnISIiIrqgVBFWDx8+jMLCQunngoICBqUL4KeffkJ+fj7++9//4sMPPwQAfPrpp6ipqcHOnTtx5MgR5SxEREREF5Qqwupnn32GU6dOYdiwYRgwYAAsFgu+++47ZTfVGD16NCwWCyoqKmSvv/71r8quqnbNNdcgMTERvr6+uPfeewEAsbGxuO666xAVFYXrrrtOOQsRERHRBXXRw2pDQwPy8/MBADNnzsSYMWPQ3NyMd999V9lVNX7xi18gKCgIOp1O9howYICyq6p5eXlhwYIFqKmpweTJkwEAN954I7799lvk5eVh0KBBylmIiIiILqiLHlYPHjyIXbt2wdfXF2PHjsW4ceMAAEVFRThx4oSyOxERERFdQS56WM3Pz0dDQwOioqIwbNgwTJgwAb6+vjh06BD27dun7A6bzYaIiAhotVqYTCZ8//33+P3vf4+BAwdCq9UiNjYWX3/9tWweQRCwd+9eTJ8+HTqdTrohasSIEXj77bfR0tIi699TTp8+jaVLl2LEiBHSOm+44QZkZGS43E3vcDiQkJAg3ai1b98+3HbbbdBqtVi9erVL+/Hjx5GSkiLt97333otjx44BAMrLy3HPPfdI67znnnvw/fffy9bX3p39+fn50rziqHdbvvnmG9x0000YMmQIysrKlM1ERERE3XJRw6rdbkdBQQEA4I477oBGo0FYWBj0ej0EQcA777wDQRCUs0m++eYbxMfH4+OPP8b58+cBAHv27IHBYMCBAwekfl9//TXuvfdevPPOO2hqaoJOpwMAVFZWYsaMGVi1alW76+mKsrIy3HrrrVi+fDkqKyul6SdPnsTq1atx5513thnurFYrZsyYgYqKCgBAU1OTrP3QoUO477778O6770r7XVJSgqlTp+Kjjz5CXFwcdu3aJfXftWsXHnjgARw/ftxpKT3jk08+QXV1NWpra/Hpp58qm4mIiIi65aKG1e+++w4WiwV9+/ZFXFwcAGDgwIGIjY0FWksBxNFCd95++21Mnz4dNTU1qK2txZ/+9CcAQG1tLT766CNZ33vvvRdffvklfvrpJ1RUVOCHH35ATEwMAGDt2rWorq6W9W/Pjh07EBwcLI0+arVaBAUFwWKxAK2B9OGHH0ZtbS1CQkLw3nvv4dSpU6itrcWWLVswYMAA1NbWYt68eW6fevD555/jmmuuwYEDB2C325Geni5r37t3L8aOHQubzQabzYYHH3wQAHDgwAH84Q9/wK9//WscP34cNTU1mD9/PgCgoqICO3fulC2nJ9x1110IDg5GQEAA7rrrLmUzERERUbdctLAqjpw2NzfjxhtvRHh4uNQWHR0NLy8v/Pjjj9izZ49sPmf33Xcf5s+fD19fX3h7e2PWrFkYNWoUAODbb7+VRktvueUWrFu3Dnq9Hl5eXgAAf39/pKWlAa2PcOrJ+tgPPvgABw4cwNVXX43XX38dEyZMQJ8+feDt7Y1JkybhpZdeAgCUlpaitLRUOTt0Oh1ee+01XHvttcomAEB4eDgyMzPRr18/9OvXD/Pnz0dQUJDUtmzZMvj5+cHX1xcPPvig1NbeseyqUaNG4eDBgzh69Kh07ImIiIh6ykULqydPnpQuG8fExMjuPB8xYgSGDRsGAHjvvffQ3NwstTkbPXo0vL29pZ/79+8vPW6puroaZ8+eBQD06dNHeurA/PnzMXnyZISHh+OPf/yjNG9nuHt01TfffIMRI0YAAL766iugdT8iIiIUcwNjxoxBUFAQBEFw+4iuMWPGtPvYqKioKAQGBko/X3PNNRg6dCgAYOTIkRg8eLDbNnejuERERERqdtHC6t69e6WazJycHAwYMEC6pH7jjTdKbcXFxTh8+LBibvf69u2Lfv36KSfjs88+w4gRI5CYmIjs7Gzs3LkTPj4++OUvf6ns6hF3j64KDAyUgrNYY6rRaGRhWuTj4+PS11m/fv3Qt29f5eQ2eXl5oU+fPkDrMRBHj5VtRERERJeaixJWm5ub8fbbbysnu3Xq1Cl89tlnyskeq6urw8KFC1FbW4vf/OY3sFqtqK2txb59+/DMM88ou/eolpYWtzduNTY2SiH1Uns2KxEREdGFdFHC6vHjx6W71X//+9+jrq4Odrtd9vr++++lOlbx8VZdcezYMWlk9oEHHpCVGzjfpd+TxowZA7TWpLp7/NYXX3yBmpoaXH311bj55puVzRfU6dOnUVdXJ5sm3ihGREREdLFdlLD6xRdf4McffwRaw6q7S96DBw+W7i7ftWsXDh48qOzikT59+kiXwT/88EM0NDRAEAQUFhZiyZIlyu494te//jWGDh2Kc+fOYdasWSgqKkJLSwuampqwbds2PPXUUwCAiRMn4pZbblHOfkFERkbCy8sL9fX1WLFiBU6fPo2WlhZ88MEHePnll5Xd28TnrBIREVFvuuBhtbGxEf/+978BAKGhoYiMjFR2AVprLe+99154eXnJvpK1s2688UaMHz8eAPDmm28iODgYgwYNwu9+9zvcfffdyu49IiQkBCaTCQMGDEBVVRWmTJkCf39/BAQEYOrUqaivr8eoUaNgMpng6+urnP2CuP3226UPA1u2bMG1114Lf39/PPjgg0hISFB2bxOfs0pERES96YKH1SNHjuCLL74AWp8CEBwcrOwiufXWW3HTTTcBAAoKCrp0N7uvry9WrVqFBx98EFdddRXOnz+P8PBwvPfee5g6daqye4+ZMGECdu/ejdTUVFldamhoKF588UV89NFHbT6a6kLQaDTIycnBtGnTpJu9goODsW7duk4dFz5nlYiIiHqTl+DuDiAiIiIiIhW44COrRERERESeYlglIiIiItViWCUiIiIi1WJYJSIiIiLVYlglIiIiItViWCUiIiIi1WJYJSIiIiLVYlglIiIiItViWCUiIiIi1WJYJSIiIiLVYlglIiIiItViWCUiIiIi1WJYJSIiIiLVYlglIiIiItViWCUiIiIi1WJYJSIiIiLVYlglIiIiItViWCUiIiIi1WJYJSIiIiLVYlglIiIiItViWCUiIiIi1WJYJSIiIiLVYlglIiIiItViWCUiIiIi1WJYJSIiIiLVYlglIlUrLy/H1KlTUVRUpGwiIqIrAMMqEalSU1MT/vrXv2LMmDG4+uqrERERoexCRERXAC9BEATlRCKii+ns2bN44oknsHnzZixcuBBPPfUUvL29ld2IiOgKwJFVIlIVQRCQlZWFzZs3IyUlhUGViOgKx5FVIlKVXbt2YfLkyRg0aBA++ugjDB06VNmFiIiuIBxZJSLVaG5uxuuvv45z585h8uTJGDJkiLILERFdYRhWiUg1Tpw4gS+++AIAMGnSJHh5eSm7EBHRFYZlAESkGhaLBZMmTQIAbNu2DZGRkcouktraWnz11VfQ6/VSTeuhQ4cQGBiIm266Sep39uxZlJSUoKmpCcOGDcPx48cRFBSEESNGOC3t0iYIAr788kv07dsX1157LQDA4XDAarVi7Nix8PX1lfp+9913OHToEAICAhAQEIDKykpER0ejX79+TkskpWPHjsFqtSImJkY2/auvvkLfvn1x6623yqZfSE1NTZg1axYqKythNpuh1WqVXYguaRxZJaJL0vHjx2E2mzFx4kSEh4dj5MiRWLduHX766SeXfmvWrEFycjLGjBmDlStX4ocffpD1udT997//xe7du/GXv/wF4eHhCA8Px7Rp0/Dll1/i/PnzUr/m5mYUFRVh7ty5uPfee/Gb3/wG27dvR2Njo2x55KqhoQH/+Mc/0NDQIE0TBAHvvvsuHA6HrO+FVlZWhg8//BB79+7Fxx9/rGxuV0NDA1paWpSTu62lpQVHjhxBU1OTsomo8wQiIpUoKysTAgMDhcDAQKGsrEzZ7NbKlSsFPz8/IS0tTdkkOXr0qHDHHXcIe/fuVTapSkNDg9DQ0KCc7LHq6mph+PDhHR6/rKwsYc6cOcK5c+eUTdSGpqYmYc6cOcJLL70kNDc3C83NzcLGjRuFKVOmCGfOnFF2v2CampqE6dOnCzfeeKPg5+cnxMfHe7w9+/fvF8LCwoRVq1Ypm7rs3LlzwpYtW4Tbb79deOaZZ4SzZ88quxB1GkdWieiSdsMNNwCtZQHuRggFQUB2djZmzZqFqKgoZbOqFBUVYc2aNcrJHuvfvz9CQ0PR2NiIU6dOKZsBAAcOHEBpaSkWL17MR4J1Qt++ffHss8/is88+g7+/P/z9/bF27VqsXLkSGo1G2f2C+eqrr3DixAls2LABAQEB2LlzJwoLC5Xd3Pr8889RV1fXIyUx4sjz7bffjn379iE/Px/Lly+XlaAQdRXDKhFd0vz8/ODl5YWzZ8+6vZxZWloKq9WKBx54QNl02enbty/8/PwgCILb4N7U1IQ1a9Zg5syZGDx4sLKZOhAUFIT3338flZWVsFqtKC4uvqiPVmtubsY///lPPPjggxg7dix+97vfQRAEvPHGG7JyBXfEkpDg4GCEh4crmz12+vRpvPzyy7jjjjtw5swZ7Ny5E8899xwGDRqk7ErUZQyrRHRJ8/f3h4+PD6xWK06fPi1rczgcWLlyJebMmXNRR78uFB8fHwQEBAAAysvLlc0oKChAY2Mj4uPjlU1XvMbGRpSUlOA///kPjh07hrbuPa6vr0dDQwP69OkDLy8vVFVVYc2aNdi5c6dsnvaW19LSgpMnT8Jms8HhcKCxsVH6d2d8++23+OGHHxAXFwcvLy/MmDEDAwYMwPbt27Fz505ld5n6+nocPHgQN998s3TOdEZdXR0WLVqEcePGISAgALt378bs2bN5ox71CoZVIrqkDR48GP7+/nA4HKivr5e1vfXWW7j++utx5513yqar1eHDh5WTOm3YsGEAgB9//FE2/eTJk8jOzkZ6ejov/ysUFBRgxIgReO+993Dy5Encf//9+N3vfge73S71qampgcFgQHx8PJYuXYr4+HjcfvvtePbZZ/HFF19g9uzZOHnypEfLe+SRR3DDDTcgPDwcCxcuRFJSEpKTk3HdddehqKhIWmd7mpubsX79eukLNABg+PDhSExMhCAIePXVV92Ori5btgxarRZDhgxBeXk5Pv74YwQGBiIhIcGjsGyz2TBv3jzExsYiMjISpaWlePDBB7t9uV8QBOzcuROxsbHQarXQarVITk52uw90BVIWsRIRXSxducHqp59+EkaPHi0EBgYKpaWl0vTDhw8LkydPFqqqqmT91WzlypXCypUrlZM7Zd26dYKfn58wY8YM4fz584IgCML58+eFv/zlL8Lf/vY3Zfcr3t69e4WQkBDhpZdeko7Xd999J4SEhAhLly4VBKebmKKiooSamhpBEAShpqZGiIqKEqZPny5UVlYKe/fuFc6fP+/R8gRBEHbv3i0EBgYKISEhwnfffScsXLhQ8PPzEzZu3Cj1ac93330nJCQkCCdOnHCZHhISIgwYMEDYvn27rM3ZunXrBK1W224fZ83NzcLChQuFW265Rdi+fbvQ3Nys7NJl586dE5588kkhNDRU+Pjjj3t02XR54MgqEV3SfHx8cM0116ChoQE1NTVA66jT6tWr8dBDD0nPHa2rq8P27duxd+9exRIuL8HBwQCA6upqnD17FgDw9ddfw2KxYNq0aUDrJerS0lIUFBRc0SNXzc3NePXVV3HVVVfhvvvuk76EYujQoRgzZgy2bt2K2tpa/PTTT9i9ezcCAwOlchKNRoPAwEDs3r0bffv2RVRUFFpaWjxaHgD84he/AACMGTMGQ4cORVZWFo4ePYr//d//lbavLYIgYP369fjtb3/rUnscHh6OKVOm4Pz581izZo3b97cr9ap9+vTB448/jri4OMydOxdbt27tkcdSiaPA69evx4svvoi4uDj06dNH2Y2ucAyrRHRJ02g0CA0NBZwuo5eUlODMmTOYPHmy1O/AgQP405/+hLVr10rTLob6+npkZmbi8ccfd3lt3boVW7dudZn++OOPY9myZR5dpg0ODoavry+qqqrgcDjQ0NCAv/3tb3jyySelh8XX1dVh3bp1ePLJJ11KJ64kYgh1OBz461//Kh3rp59+GuXl5Thz5gyamppw1VVXoW/fvsrZgdab2q666v/+lHq6PGcBAQHw8fGBt7c3AgICPApqBw4cwLfffov7779f2YS+ffti1qxZ8PX1xfbt21FWVqbs0uV6VZ1OhxUrVqCwsBD79u3D7bff7vLs2c46duwY/v73v6NPnz746KOPOn2+0xVCOdRKRHSxdKUMQGh9bqifn5+QlZUl1NbWCr/97W8Fi8Wi7CasXLmy3eexXgjnz58XamtrherqapfXkiVLhCVLlrhMr66uFmpra6XLyu05evSocOONNwo33nijcPToUeGtt94S5s6dKzQ1Ncn6lZWVCWPHjhWqq6tl068k4nNpw8PDhX379rkc8xMnTgjNzc3C+fPnBZPJJAQHBwt79uwRBEEQ9uzZIwQHBwsmk0l6XzxdnuB0rnf2fDx//rzw9NNPC9nZ2comiVi24OfnJzz00EMuz9PdtWuX4O/vL7z44ouy6Z3lcDiE1157Tbj11luF1157TXA4HMouHdq+fbug1WqFSZMmCVu3bpVeu3btYjkASTiySkSXPPEGk6qqKrzxxhsYO3bsRf36y/Z4eXlh0KBB0Ol0Li+NRgONRuMyXafTYdCgQdJl5fb069cPvr6+sNvtKCsrw1tvvYUnnniizZHBK5m3tzf69+/f5nsyePBg6a5/jUaDe+65BzNnzsSwYcMwdepULFy4EI8++qj0vni6vO4oLy/Ht99+C4PBoGyS9O3bFw8//DCuvvpqfPjhhy6jqwcOHEBLS4v03OGWlhb8/PPPbT4BoS39+vXD7NmzsXv3bvTv3x/jxo3Dn/70J9TV1Sm7tqmxsRGCIGDSpEkwGAzS68477+z2saLLB8MqEV3yxC8G2Lp1KwoLCzF9+vQ2g11zczO2bduGuXPn4oUXXoDNZgOc7kZ++umnkZycjL///e9SzSdav7Z12bJleOyxx/Dcc8/hnXfekeb75JNPMGPGDDz++ONuHxl1IWk0GoSEhKChoQHz5s3DAw88gOuuu07ZTVJRUYHFixdj/vz52Lt3ryywHDp0CJmZmZg+fTo2bNggXe7duXMn5s+fjzfffBOHDh3C4sWL8dxzz+H48eOy9ldeeQWNjY347rvvsHjxYmRmZkplB+Xl5Vi0aBEee+wxZGZmYteuXdJ6AWD37t145ZVXZO9BTxs0aBAmTJiA6upqHDhwQNbW0NCAxYsX4+TJk9JjqFJTU/H111/j0KFDOHr0KObMmSN7soKny+sqQRDwzjvv4O6770ZgYKCyWeaXv/wlJk+ejHPnzuHvf/87mpubgTbqVYuKimAymdr8nemIr68vHnzwQXz55Ze4/fbbMXnyZMybN0/63WqPWLbi7hnJRCKGVSK65AUFBcHX1xdNTU2YP39+uw8k/+qrrxAaGoqVK1fiV7/6FaZOnYrvv/8eJ0+exOzZs3HdddfhX//6FxwOB1JSUtDQ0AC73Y6MjAw89NBDWL16NW6//XbYbDYIgoBXXnkFW7duRXZ2Np588kmkpaW5BJULqV+/ftJNVrfddpusblfJZrOhsrISf/7zn5GRkYHnnnsOb731FgCgsLAQCxcuxJNPPon169ejf//+eOqpp9DQ0IDhw4ejpaUFJpMJ+/fvx3PPPQedTocnnngCjY2NUvu2bdvQ0tKCsLAwDB48GFu2bEFDQwN++OEH/PWvf8WCBQuwatUq6HQ6We3siRMnkJaWhsWLF+OVV15x2uKe5eXlhcceewxDhw7Fyy+/LPvWr48//hheXl645ppr4OPjA61Wi8cee0yqqVy8eDHefvttHDx4UApani4PAM6fPw+0hkdPRzSPHTuGf/7zn8jMzJQe79TWa9CgQXj77bcBAO+//z6++uorAMC5c+dQX1+PoUOHYuDAgaisrMTrr7+OWbNmKdbWed7e3rjvvvvw2WefYfLkyXj22WelG8raMmLECNxzzz34z3/+IxuRPXnyZJvfwkZXHoZVIrrkaTQa+Pj4YPr06YiOjlY2y9x+++2IiIgAWsNcWFgYsrOzMXjwYLzxxhtISkqCl5cXJkyYgMrKStTX16OxsREHDhzABx98gJMnT2L8+PG47777cOzYMeTk5MBgMMDb2xtDhgzBsGHDPP66y94gXoIeMGAAnn322Xaff6nT6RAbG4s+ffrA398ff/zjH2EymWC1WvGXv/wFCQkJ8Pf3h5eXF8aPH49PP/0URUVFGDRoEEJDQxEYGIjY2Fh4eXkhNDQU+/fvx88//yy1izQajfT8VwCw2+0oLS3Ftm3bYLfb8Yc//AG//OUvpXY/Pz/ccccd8PLywrFjx6TpvSE0NBQfffQRBgwYgOHDhyMlJQX33Xcf3n//fTz11FPSaGNiYiKOHTuGDRs2YMOGDXjllVcwY8YMjB49GlOnTpWeoerJ8oxGI+666y40NDRgy5YtGDBgAIxGo2LLXG3atMnl+bmeOHfuHN588000NzejX79+mDlzJr777jvMmTMHjz32GDIyMmTvV3f16dMHv/rVr7Bu3boOb+Dy9vbGyy+/jKFDh+Kuu+7Co48+iqSkJKSkpFzRN/+RgrKIlYjkzp8/L+zevVvYu3evdKPE999/L3zyySfC2bNnZX2//fZbYevWrUJxcbHw3XffCR999FGXbjq4UnX1BquzZ88K27dvF+rq6pRNMu5usEpLSxPi4+OFM2fOCAcOHBBmzJghPPDAA0JSUpIwcuRI6Qakf//730JgYKDg5+cn3HrrrcLXX38tlJWVCaGhoUJSUpIwZ84c6fXxxx/L1uGpnnjOqiAIQnl5uXQjUFvc3WCVl5cnBAYGCp988okwfPhwIS8vT2oTbx4St2/lypXScRPnHT58uLS89tqbmpqEFStWCAMGDBD8/PyE2NhYt8/DPXr0qLB48WLl5F5z5swZobq6Wvj5559l03ft2iUMHz5cKCgokN3kdu7cOeGtt94SAgMDZc9QFbW1PDU4c+aM7IYvNVDz8aKLiyOrRB3473//i927d+Mvf/kLwsPDER4ejmnTpuHLL7+ULuXBqRZs7ty5uPfee/Gb3/wG27dvd/sd7dSzfH19MWHCBPj7+yubPNKvXz/s378ff/jDH5Camorc3Fw8/fTT0Gg0aG5uRn19PYYPH44ff/wRX3/9NX71q19h8eLFaGpqQp8+fZCamoq//e1v0isuLk65Co/ccsstuOWWW5STO+2mm27CbbfdppzsER8fH/Tr1w99+/ZFdXW1srlHvv3q9OnTMBgMOHnyJHbu3ImBAwdi2bJlym7Yv39/hyNzPUm8uW3AgAGy6bt370ZYWBjuvPNOWV2nt7c3/vCHP+C+++6D1WqVzYN2lqcGGo2mR2746klqPl50cTGsEnXAx8cHTzzxBF577TWEhITA19cXq1evxsKFC2XfN9+3b1889thjSElJQUpKCr799lu88MIL7dZPktypU6fQ2NgIrVaLgQMHKpt7xOnTp6VnXdbV1aG8vBwPPPAAvvjiC/j5+Uk3nRw7dgynTp3CN998g08//RQvvfQSHA4HhgwZgocffhj+/v4YOnQoRo8eLfte+P379+Pdd9+VrdNTd999N+6++27l5F7T2NgoPctSEAR8/vnniI2NxW233Yb4+Hjs379f2q+6ujr0798fsbGxiqW4pwwclZWV0r9/+OEH/O1vf4OXlxduueUWPPLIIy5PK7Db7Xj77bfdPkv0QouMjMSBAwfwxRdfKJtQXl6O3bt34/bbb1c2XXb+9Kc/ISIiwuNXQkJChzWrRJ7wEjyt7Ca6wp05cwa/+93vsHv3bpjNZkyYMEHZBQcOHMCCBQvw+uuvu3yzDHXs3//+N2bNmoVRo0bhvffe6/HA+uqrr6K2thZeXl644YYbsHnzZowbNw7p6emw2WxITExEZGQkIiMj8eOPP+Ljjz+GTqfD448/jszMTISHhyMuLg4fffQRfvvb3+K+++5DTU0NHnnkEVxzzTW47bbbcOzYMcyfP196AL9aWSwWZGdn43/+538wZMgQWCwWWK1WvPrqqwgKCsLZs2excOFCnDt3DiNGjMAHH3yAjIwM/OpXv8LatWuxbNky1NXVITk5GTExMVi2bBmOHj2KX//611i5ciW8vLwwc+ZM/P73v8dVV12FwsJCfPjhh7jjjjswd+5cLFq0CBMnTsRtt92Gt99+GwsXLsSoUaOk7Vu2bBkiIiIwZcoU2XZfDIIgoLi4GAsWLIC/vz9uvPFGAMD333+P7777DllZWXjwwQdVNUpJdDlhWCXyUGNjI/74xz/i448/xubNmxEfHy9rb2pqwrx583D33Xe3ewc2uScIAh555BH861//gtFoxIsvvqjs0mNaWlpQV1cHPz8/+Pj4SNMFQcCpU6fwi1/8QjZq3tLSIpV8/Pzzzxg4cKDL5XCHw4Hm5maXEcVLgXgji7ttb2xsxNmzZ6UbrTrD+TijtaRmwIABssconT59GoMGDbokgp54fnz33XdoampCRESE6i6lE12OWAZA5CEfHx+pfs7dszQLCgrQ2NjoEmLJM8eOHUNRUREGDBiA6dOnK5t7VJ8+fTB48GBZUIXTnfTOQRWt/b29veHt7Y3Bgwe7BFW01tu5C3uXggEDBrS57T4+Ph5/IYGS83H28fGR1tG3b1/07dsXPj4+l1TYE8+P6OhoTJw4ETqd7pLZdqJLGcMqUSeIj99RPj7m5MmTyM7ORnp6utsgQ+0TBAGvvfYafvzxR8ybNw/Dhw9XdiEioisUwypRJ4g3S9XV1Uk3ngiCgLVr1+Luu+/G8OHD0djYiNLSUhQUFEjf+HMpamxsxLx581xumujodffdd+Po0aPKxbXr/fffR3Z2NlJSUmRfX0lERMSaVaJOyM/PR2JiIsaPH48tW7ZAo9HAYrFg6dKleP3116HVavHjjz/i+eefx2effYbCwkLodDrlYi4Z9fX1nQ7cV199tcf1jYIgwGw2Iy0tDbNmzcKf/vSndh9iT0REVx6GVaJOsFgsmDRpEoKCgvDJJ5/Az88Pjz76KGbNmoWxY8fK+j366KN45513Lumw2tvefPNNZGVl4fXXX8ddd93lUcAlIqIrC8sAiDph4MCB0Gq1aGhowNmzZ/H+++/D39//injGYm+46667MGTIEGRlZeHw4cPKZiIiIo6sEnXGiRMncPfdd6OmpgZ///vf8eabb+KVV17BddddJ+vnPLJ6/vx5fPnllwCAkJAQ3HbbbTh+/DjefPNN7N+/HyEhIUhLS8OQIUNw6tQp7Nq1C01NTfD29sbYsWNx4sQJHDhwAN7e3oiIiEBeXh5++OEHzJw5E/v27UNJSQliY2ORkJCAvLw8FBYWYtSoUXjggQfg6+uLlpYW5OXl4ZNPPkFdXR2mTJmCKVOmdHgjWHNzM15//XXs379f2dSu/v374/HHH/d4RNlut+Oxxx7Dtm3b8Oabb2LSpEnKLkREdCWTf/sqEbXnzJkzQnx8vODn5ycMGTJEeOutt5RdBEHxvesHDx4UoqKihOzsbKGmpkYQBEF49NFHhfvvv19wOBzCnj17hMjISGH//v3CuXPnhN27dwtDhgwRsrOzhXPnzgnff/+9EB8fLxQUFAgOh0P4/PPPhZtuukmYPXu2YLPZhJqaGuHOO+8UZs+eLRw8eFA4c+aMMHnyZGHdunWCIAjCvn37hJCQEOHjjz8Wzp07Jzz88MPC008/LfuO87b8/PPPQnV1dadeXfm+8draWuFXv/qVEBISIuzdu1fZTEREVzCWARB1Qr9+/RAcHAwAuO222zp8+P+pU6ewZs0a/Otf/0JaWhoCAwMBAM888wyWLVuGfv36Qa/XIzAwEFarFd7e3rj99tvx29/+Frt374aXlxf++9//4v7778fdd9+Nfv36ISwsDFdddRXuueceBAUFQaPRYODAgRg6dCjCw8Ol79cWvxpSr9djy5YtGDduHLy9vREfH49vvvkGZ8+eVWytqwEDBkCn03Xq1ZXnZg4aNAiLFi2C3W7Hs88+C7vdruxCRERXKIZVok4QHwo+YMAAPPv/2rv3sKirNA7g39Eh0VkuA4K6ggEaSbJshaJgrUISGshF1NTVVpAIl4u2rpT3rFbdliUtFQy5ZSp5GyEhRS6pi0JyUS4CSkJgiYzcgmHYmcGz/8jvcX6AjtbqIO/neeZ59Lzn92Nm1Md33jnnPevW3XfnulQqxdtvv42cnJwe8wwNDZGcnAwvLy+sWrUKV69e5WICgQDu7u7Izc3FjRs3UFxcDEdHR7XrAfT4Gr+vBFEoFKKrqwvLli2Dn58fYmNj+VO0gqOjI6ZOnYrz588jPT2dHyaEEDJAUbJKyEMKCAiARCLBH//4R35IjVgsRmJiIqZMmYKtW7dCqVQCd4/lXLx4MYRCIY4dO4bIyEjY2NiAMcZVO+3t7TFy5EgcOnQIVVVVeP7553l319y3336Ld999Fx9//DHi4+MRFBQE3D36svs5aQORSAQXFxcAQFJSEjo7O/lTCCGEDECUrBLykJ5//nlMnDiRP9yDUCiESCTC6tWrcfHiRRw7dgwAcP36dZSWlsLJyQmDBw9GS0sLrl+/DplMhoMHDwIA9PX1sWDBAvzjH/+AjY1Nj8rsw0hLS8O4ceO4TWBlZWUAgLy8PO7X2mLChAkAgCtXrqClpYUfVtPY2IjTp0+jrq4O9fX1qK+vx7lz51BZWak2r6OjA6dOncKJEydQWVmJrKwsrXvdRPvV1tbi7Nmz/GEUFhaiuLiYP/xYKZVK/OUvf4GLiwstoSFPpcEffPDBB/xBQsijKy4uRnBwMEpLS1FZWQlLS0tIJBIcOHAA5eXlmDt3LhoaGrBv3z4IhUJkZmZCV1cXp06dgr29PV566SUAwPDhw1FZWYng4GDurPra2lqsWLECRUVFKCgogFgsxt69e5GWloaSkhIMGjQIGRkZSExMREVFBRQKBXx8fBAVFYXm5mZcvnwZzc3NKCgoQFNTE2bPng19fX3eK3hyZDIZkpKSIJfL4ePjc9+OAlVVVdi/fz82btyIbdu2Ye/evWhra4ONjY1ad4aamhps2bIFERERiI2NxU8//QRra2vu6NynSVtbGzZu3Ihly5Zh9+7dkEgkGD9+PMzMzPhTe/Xuu+/i66+/hkKhwLVr11BRUYEDBw5g165dcHV1/VUfmvq7+vp6REdHw9XVlVuC031MsIWFBczNzfmXPDYFBQX44IMPUFdXB1tbW7zwwgv8KX2Sy+UYNGgQBg2i2hXRYvwdV4SQx6O9vZ01Njb2uSu/pqaGxcXF8YcfiUqlYg0NDUwul/NDWqWoqIiZmpoyU1NTVlRUxA/3KjIykunp6bHAwEB+iFNdXc2mTJnyVHcaaG1tZbNnz2bBwcGso6ODMcZYZmYms7CwYKmpqfzpvQoMDGR6enpqDzs7O3b58mX+1AFHqVSy0NBQFhERwVQqFVOpVCwxMZF5eXmx9vZ2/vTHRqlUMj8/PzZu3Dimp6fHZs2apfHzuXLlCrOwsGCff/45P0SIVqGPUoQ8ISKRCEZGRmqnNpWUlMDOzg4FBQXIzs7G5MmT1a55VIMHD4aJiQl0dXX5oX5v7NixwN1lAb2tc2WMYc+ePQgICIC9vT0//NRIT09Hfn4+AgICuAqos7MzZs6ciYiICI2/HnZ2dsbcuXMREBCAL7/8Erm5ubCzs+NPG3CEQiHWrVuHM2fOQCwWQywWIyYmBpGRkdw3H09CYWEhGhoakJCQAGNjY+Tk5CAzM5M/rVcXLlxAU1MTt/zmQerr67VqnTsZOChZJUSLGBkZwdzcHLt374ZKpYKNjQ1/CuHR09ODQCBAR0cHurq6+GEUFBSgpqYGCxYs4IeeKKVSicbGRv5wDw0NDb2+rnt1dnYiKSkJhoaGaksnBAIBrK2tcenSJY3X6QYFBSEuLg6RkZHw9vYe0F/9840YMQIpKSmoq6tDTU0Nzp49CysrK/60x0alUuGrr77CkiVL4OTkBF9fXzDGEB8fD7lczp+uRqVSITs7G6NGjYK1tTU/3Kvc3Fw4OTlh+/btaGtr44cJ+b+hZJUQLTJ69GikpqYiNjYWAQEBalVX0juxWAxdXV3U1NT0+A9UJpMhMjISoaGhT7T61RuFQoHQ0FCkpKTwQ5zk5GQEBwf3WjG+V0tLC65cudJn9VylUqGgoIA/TO7R2dmJc+fO4cSJE6itrUVfhzu2trZCLpdj8ODBEAgEuHHjBqKiopCTk6N2zf3u19XVBalUivr6eshkMnR2dnK/fhilpaX48ccf4erqCoFAAH9/fxgYGCArKws5OTn86WpaW1tRWVkJW1tbGBsb88O98vb2xvnz52FmZobXXnsN69evR1NTE38aIb85SlYJIf2aiYkJxGIxZDIZWltb1WJJSUl49tlne+1T+6SJRCLs2rULCQkJSE5O5oeRnJyMffv2ITY29oGJtlQqRUtLC0QiUY/+u6NHjwYAjZMKqVSKtWvXws7ODm5ubsjIyOgzcXtanD59GhMmTEBycjKkUilmz54NX19ftaUTt27dgre3N2bNmoUtW7Zg1qxZcHBwwLp165CXl4fly5dDKpVqdL+//vWvGDt2LKytrbFmzRosXLgQixYtwpgxY5Cdnc39zPtRqVSIi4uDp6cnjIyMAAA2NjZ48803wRjDrl27eq2ubt26Ffr6+rC0tERFRQXS09NhamqKN954Q6NkWUdHB3PnzsWFCxfg6OgId3d3LF++HD/++CN/6kNhjCEnJwevvfYa9PX1oa+vj0WLFvX6GsgAxF/ESgghT8qjbLC6ffs2mzRpEjM1NWUFBQXc+A8//MA8PT3ZjRs3GLt7pGtmZia7ePHiPVc/eU1NTczHx4cdP36cGzt+/Djz9fVlra2tanP70v2+9ba5Ji0t7YEb0LoFBgayqVOnspKSEnbnzh2Wm5vLzM3N2aefftrnRsD+Lj8/n5mZmbGIiAjuNZaVlTEzMzO2ZcsWxu7ZxGRvb88dmXzr1i1mb2/P/Pz8WF1dHcvPz2d37tzR6H6MMZabm8tMTU2ZmZkZKysrY2vWrGF6enosMTGRm3M/ZWVl7I033mANDQ09xs3MzJiBgQHLyspSi90rNjaW6evr33eOJu7cucMuXrzI3Nzc2OLFi9nVq1f5Ux5IoVCwlStXMnNzc5aenv7QxzWTpx9VVgkh/Zquri6GDx8OuVyOW7duAXerTjt37sRbb73FVRbLy8uxceNGxMTE8O7wZInFYsTGxiIxMRHJyclITk5GYmIiYmJiHntbsWnTpiE2Nha2trYQCARwcHDA/Pnz8fHHH+PChQv86f2eSqXCrl27MGjQIHh4eHDLbqysrDB58mRIJBI0Njbi9u3byM3NhampKVflFolEMDU1RW5uLoRCIezt7dHV1aXR/QBgyJAhAIDJkyfDysoKmzdvRnV1Nf785z9zz68vjDHExcVhzpw5MDExUYtZW1vDy8sLd+7cQVRUVK+VyUdZr9oXgUCAiRMn4ttvv8V7772H8PBw+Pj4oLS0VKOKfHcVOC4uDv/617/g6ura52l8ZOCiZJUQ0q+JRCKux+UPP/wAADh37hza29vh6enJzZs6dSp8fX2532uT7n65n332GT777DPs3bsXYrGYP+3/btGiRWqnpQkEAowePRoKhQISiURt7tOgOwmVyWT45JNPEBYWhrCwMISHh6OiogLt7e1QKpUYNGgQhEIh/3LgbpeA7h6lmt7vXsbGxtDV1YWOjg6MjY01StTKy8tRWlqK2bNn80MQCoVcR4isrCwUFRXxpzzSetUHEQgEsLW1hUQiwSeffIL3338f3t7ePZbm8NXW1iI6OhqDBw/GyZMnufds69atGi1LIAMDJauEkH7v3nWZTU1N2LlzJ4KDg3us39RWjDFkZ2dDKBRCKBQiOztbo6pUN0NDQ+jr66Orq6vHdTdv3gQAjB8/Xm2cr7GxESdPnkR9fT0/BNxtW6RSqfjDTwVjY2OsXLkSa9eu5R4ZGRk4c+YMTExMYGJiAn9/f1y6dAnl5eXA3YTx0qVL8Pf371HdfND9fg3GGBITEzFnzhyYmprywwAAW1tbuLu7Q6FQYM+ePT0S5KtXr6KqqgpTpkzpdUPeo2KMobS0FOHh4VAoFNiwYcMDvx24fv06bt68CQcHB3h5ecHFxQUuLi6YPn36b/rcSP9GySohpN/r3mBy48YNxMfHw8nJqc/eoCqVCqdOncLf/vY3/POf/+SSs+4NHuHh4Vi0aBGio6PR0dHBXffTTz9h69atCAkJwYcffoijR49y12VkZMDf3x9hYWGoqKjgrtEEYwzHjh3DwYMHcfjwYRw+fBgHDx68b5cAPkNDQ/z+979HXV0d2tvb1WLdla3ufrR92bZtG+bPn4+QkJBeuw8MGzasz+pif6Wjo4Pf/e53EAgEMDIywsiRI9UeJiYm3K5/kUiEmTNnYtmyZXjuuecwb948rFmzBsHBwdzX/Zre79eoqKhAaWkpvL29+SGOUChEUFAQnnnmGaSmpvaorpaXl6Orq4vrO9zV1YWWlpYeH3Q0xRhDfn4+3NzcsGHDBnz00Uc4deoUJk6c+MCOJp2dnWCMwc3NDd7e3tzD0dHxV79X5OlBySohpN/rTsQkEgkyMzPh5+fX53+ShYWFMDc3R2RkJKZNm4Z58+ahqqoKUqkUy5cvx5gxY7B//37IZDIsXboUcrkcv/zyC9auXYu33noLO3fuhIODA+rr68EYw44dOyCRSLBnzx6sXLkSgYGBXPXtQe5NVOPi4rhd0HFxcdi3b1+vXQJ6Y2hoCAcHByiVyh6J5s8//4wRI0aoJe/V1dWIiopS6/M6YsQIGBgYwN3dXa2i1d0O7N4DKpRKJRISEnDixIlHTnC0gZGREZydnXHz5s0ef2ZyuRwbNmyAVCrl2lC9/fbbuHz5Mq5du4bq6mqEhoaqVe81vd+jYozh6NGjmDFjRp9V1W4vv/wyPD09oVAoEB0dzVXFe1uvmp2djU8//bTPfzN96erqwpkzZ+Ds7IzY2FjExMRAIpFwa541MWrUKAwdOvSBvYTJwEbJKiGk3xsxYgSGDh0KpVKJ1atXc5XW3jg4OHBnp0+cOBEWFhbYs2cPTExMEB8fj4ULF0IgEMDZ2Rl1dXVobW1FZ2cnysvL8c0330AqleKVV16Bh4cHamtr8cUXX8Db2xs6OjqwtLTEc889p9EJQt2J6tGjR7lEtdujJKyLFy/Gf//7X+Tl5XFjUqkUZ8+exZw5c/Dss88CADo6OrBixQq899572LRpEzfX1dUVf/rTn9TW9dbV1UEikeDll19Wq+R99913CAsLw9KlS3Hx4kVuvL8RCAQICQmBlZUVtm/fjubmZi6Wnp4OgUCA4cOHQ1dXF/r6+ggJCeHWVG7YsAFHjhxBZWUll2hpej8AuHPnDnA3edQ04a+trcVXX32FTZs2cR9s+noYGRnhyJEjAICUlBQUFhYCd/v7tra2wsrKCoaGhqirq8PevXsREBDA+2l96+rqQmpqKqZNm4aUlBQkJSUhKiqK+zv2MCZMmICZM2fixIkTau3VpFKp2vtHBjZKVgkh/Z5IJIKuri78/Pzw6quv8sN9EgqFGDZsGMrKytDR0QGRSITw8HAsXLgQERER3E5qU1NTrF69Gps2bcLYsWMxdepUtLa2orm5Ge3t7YiPj0dYWBhWrFgBkUiktkmpL7dv30ZxcTGio6N7XdfXnbAWFxdrdNKVnZ0dduzYgfDwcHz44Yc4dOgQ5s2bh9GjR2PdunVcpWvo0KGYMmUKhgwZgtdff13teg8PD8yYMQMRERGIiIiAm5sbjI2NsX//frUPAJaWlhgzZozGp3BpM3Nzc5w8eRIGBgawsbHB0qVL4eHhgZSUFPz973/n3rc333wTtbW1SEhIQEJCAnbs2AF/f39MmjQJ8+bN43qoanK/d955B9OnT4dcLsfhw4dhYGCAd955h/fMejpw4AB+/vln/vADKRQKfPnll1CpVBg2bBiWLVuGsrIyhIaGIiQkBGvXruU2Kd6PUqnEkSNH8MorryAvLw8pKSn497//rXZq2sPS0dHB9u3bYWVlhenTpyM4OBgLFy7E0qVLH7g5iwwg/F5WhBDypDxKn1XGGOvo6GBZWVmsqamJH1ITGRnZo99oYGAg8/X1Zd9//z37wx/+wC5cuMDY3efi5OTE6urqWEtLCyspKWEqlYpdv36dhYaGMk9PT/b9998zCwuLX92r8rfU2NjI0tLSmEQiYdeuXXvo/qj3Xl9UVHTfnpdff/01S0tL4w/3W+3t7ezmzZuspaVFbfz8+fPMxsaGnT59Wu39VCgULCkpiZmamqr1UO3W1/20QXt7O2toaLjvn++9lEolW79+Pdu9ezeTyWT88G9Cm98v8mRRZZUQ0u8NHToUzs7OGrV7amtr43ZHNzU1oaKiAgsWLEBeXh709PS4dXy1tbVobm5GSUkJvvvuO0REREAmk8HS0hJBQUEQi8WwsrLCpEmT1I7avHLlCo4dO6b2Mx8nIyMjzJo1C97e3hg3bpzGawe73Xv9iy++2Ocml+5NNaNGjeKH+i2RSISRI0fCwMBAbTw3NxcWFhZwdHRUez91dHQwf/58eHh4oKamRu0a3Od+2kAkEj3Uhi+hUIiPPvoIy5cvx7Bhw/jh34Q2v1/kyaJklRAyYDzzzDMYP348tm3bhgMHDsDPzw/u7u7w8vKCl5cXGGNYv349vvjiCxQWFsLQ0BAxMTEwMDBAdXU1Vq1ahUOHDiEiIgJz586FsbExPv/8cxQVFSEoKAgxMTE4ePAgZsyYwf/RT52CggLI5XJMmDCBH3rqvPjiiygvL1dbD9ytoqICubm5cHBw4IcIIb8RAdN0ZTchhPyfVVZW4vXXX0dbWxtSU1Ph6OjIn/Kb6OrqQlNTE/T09NR2vjPG0NzcjCFDhnAnFXXP794Q09LSAkNDwx49XGUyGVQq1YCoCjU3N2PVqlXYvHmzRmsd+zvGGM6ePYv3338fYrEY48aNAwBUVVWhrKwMmzdvxpIlSzSuUhJCHg4lq4QQrfHLL7/A29sb+fn52L59O/z9/flTCHliuj/MlJWVQalU4oUXXnior9IJIY+GlgEQQrSGvr4+FixYAAD45ptvej3XnJAnpbvZ/6uvvgoXFxeMHDmSElVCHgNKVgkhWsXHxwc2NjbIyspCWloaP0wIIWSAoWUAhBCtU1BQwDWhP378OHcsJCGEkIGHKquEEK1jb2+Po0ePQigUYsmSJdzpO4QQQgYeSlYJIVrJwcEB//nPf/DSSy/B2dkZGRkZ/CmEEEIGAFoGQAjReq2trRgyZIhamylCCCEDAyWrhBBCCCFEa9EyAEIIIYQQorUoWSWEEEIIIVqLklVCCCGEEKK1KFklhBBCCCFai5JVQgghhBCitShZJYQQQgghWouSVUIIIYQQorUoWSWEEEIIIVqLklVCCCGEEKK1KFklhBBCCCFai5JVQgghhBCitShZJYQQQgghWouSVUIIIYQQorUoWSWEEEIIIVqLklVCCCGEEKK1KFklhBBCCCFai5JVQgghhBCitShZJYQQQgghWouSVUIIIYQQorUoWSWEEEIIIVqLklVCCCGEEKK1KFklhBBCCCFai5JVQgghhBCitShZJYQQQgghWouSVUIIIYQQorUoWSWEEEIIIVqLklVCCCGEEKK1KFklhBBCCCFai5JVQgghhBCitf4HKfYRY4fxUqIAAAAASUVORK5CYII=;" parent="1" vertex="1">
          <mxGeometry x="625" y="960" width="379.44" height="310" as="geometry" />
        </mxCell>
        <mxCell id="wo0u3d-V8i8jjWJqVI2R-74" value="Bazı Bölgelere TriggerZone adlı tetikleyiceler eklenerekten kontrol sağlanıcak" style="text;html=1;align=center;verticalAlign=middle;resizable=0;points=[];autosize=1;strokeColor=none;fillColor=none;" parent="1" vertex="1">
          <mxGeometry x="625" y="1280" width="430" height="30" as="geometry" />
        </mxCell>
        <mxCell id="wo0u3d-V8i8jjWJqVI2R-75" value="Ritimle Kök Uyumunu Yakala" style="text;html=1;align=center;verticalAlign=middle;resizable=0;points=[];autosize=1;strokeColor=#b85450;fillColor=#f8cecc;rounded=0;" parent="1" vertex="1">
          <mxGeometry x="1055" y="690" width="180" height="30" as="geometry" />
        </mxCell>
        <mxCell id="wo0u3d-V8i8jjWJqVI2R-76" value="&lt;p data-end=&quot;336&quot; data-start=&quot;43&quot;&gt;Sol ve Dew, kadim kök sistemine ulaştıklarında yeraltından gelen nabız gibi atan bir enerjiyle karşılaşırlar. Bu kökler, doğanın kalp atışı gibi belirli bir ritimle titreşmektedir. Oyuncular, bu ritmi dinleyerek ve hissederek &lt;strong data-end=&quot;316&quot; data-start=&quot;288&quot;&gt;doğru sırayla ve zamanda&lt;/strong&gt; köklere basmalıdır.&lt;/p&gt;&lt;p data-end=&quot;609&quot; data-start=&quot;338&quot;&gt;Ancak kutsal kökler tam suya ulaşmadan önce çevredeki çürümüş dokular &lt;strong data-end=&quot;440&quot; data-start=&quot;408&quot;&gt;yavaş yavaş yayılmaya başlar&lt;/strong&gt;. Bu, doğanın hassas dengesinin bozulmakta olduğunun bir göstergesidir. Eğer oyuncular doğru ritmi zamanında yakalayamazsa, çürüme alanı genişler ve kök sistemini sarar.&lt;/p&gt;" style="text;whiteSpace=wrap;html=1;fillColor=none;" parent="1" vertex="1">
          <mxGeometry x="1055" y="725" width="360" height="210" as="geometry" />
        </mxCell>
        <mxCell id="wo0u3d-V8i8jjWJqVI2R-77" value="&lt;p data-start=&quot;611&quot; data-end=&quot;747&quot;&gt;❌ &lt;strong data-start=&quot;613&quot; data-end=&quot;634&quot;&gt;Yanlış zamanlama:&lt;/strong&gt; Kökler titreşerek oyuncuyu geri iter, sinyal kesilir, ritim döngüsü sıfırlanır ve &lt;strong data-start=&quot;717&quot; data-end=&quot;747&quot;&gt;çürüme daha hızlı yayılır.&lt;/strong&gt;&lt;/p&gt;&lt;p data-start=&quot;749&quot; data-end=&quot;880&quot;&gt;✔️ &lt;strong data-start=&quot;752&quot; data-end=&quot;772&quot;&gt;Doğru zamanlama:&lt;/strong&gt; Kök ağına enerji aktarımı başlar, su kanalları açılır, çürüme durur ve üst dünyaya &lt;strong data-start=&quot;856&quot; data-end=&quot;872&quot;&gt;ışık sızmaya&lt;/strong&gt; başlar.&lt;/p&gt;" style="text;whiteSpace=wrap;html=1;" parent="1" vertex="1">
          <mxGeometry x="1055" y="910" width="360" height="100" as="geometry" />
        </mxCell>
        <mxCell id="wo0u3d-V8i8jjWJqVI2R-88" style="edgeStyle=orthogonalEdgeStyle;rounded=0;orthogonalLoop=1;jettySize=auto;html=1;" parent="1" source="wo0u3d-V8i8jjWJqVI2R-82" target="wo0u3d-V8i8jjWJqVI2R-86" edge="1">
          <mxGeometry relative="1" as="geometry" />
        </mxCell>
        <mxCell id="wo0u3d-V8i8jjWJqVI2R-82" value="Kök Yolu Yolculuğu" style="text;html=1;align=center;verticalAlign=middle;resizable=0;points=[];autosize=1;strokeColor=#d6b656;fillColor=#fff2cc;rounded=0;" parent="1" vertex="1">
          <mxGeometry x="228" y="1380" width="120" height="30" as="geometry" />
        </mxCell>
        <mxCell id="wo0u3d-V8i8jjWJqVI2R-83" value="&lt;strong data-end=&quot;189&quot; data-start=&quot;176&quot;&gt;Lokasyon:&lt;/strong&gt; Kutsal kökün içi – nemli, loş, biyolüminesansla aydınlanan bir kök ağı koridoru" style="text;whiteSpace=wrap;html=1;" parent="1" vertex="1">
          <mxGeometry x="228" y="1425" width="320" height="60" as="geometry" />
        </mxCell>
        <mxCell id="wo0u3d-V8i8jjWJqVI2R-84" value="-&amp;nbsp; Oyuncular, restore edilen kutsal kökün içinden yukarıya doğru ilerlemeye başlar.&lt;div&gt;&lt;br&gt;&lt;div&gt;-&amp;nbsp;&lt;span style=&quot;background-color: transparent; color: light-dark(rgb(0, 0, 0), rgb(255, 255, 255));&quot;&gt;Bu bölüm, Sol &amp;amp; Dew’in doğayla olan bağlarını güçlendirdiği bir yolculuk sekansıdır.&lt;/span&gt;&lt;/div&gt;&lt;/div&gt;&lt;div&gt;&lt;span style=&quot;background-color: transparent; color: light-dark(rgb(0, 0, 0), rgb(255, 255, 255));&quot;&gt;&lt;br&gt;&lt;/span&gt;&lt;/div&gt;&lt;div&gt;&lt;span style=&quot;background-color: transparent; color: light-dark(rgb(0, 0, 0), rgb(255, 255, 255));&quot;&gt;-&amp;nbsp;&lt;/span&gt;&lt;span style=&quot;background-color: transparent; color: light-dark(rgb(0, 0, 0), rgb(255, 255, 255));&quot;&gt;Yükseldikçe çevre değişir, çürümüş bölgeler iyileşmeye başlar.&lt;/span&gt;&lt;/div&gt;&lt;div&gt;&lt;span style=&quot;background-color: transparent; color: light-dark(rgb(0, 0, 0), rgb(255, 255, 255));&quot;&gt;&lt;br&gt;&lt;/span&gt;&lt;/div&gt;&lt;div&gt;&lt;span style=&quot;background-color: transparent; color: light-dark(rgb(0, 0, 0), rgb(255, 255, 255));&quot;&gt;-&amp;nbsp;&lt;/span&gt;&lt;span style=&quot;background-color: transparent; color: light-dark(rgb(0, 0, 0), rgb(255, 255, 255));&quot;&gt;Oyuncuların &lt;/span&gt;&lt;strong style=&quot;background-color: transparent; color: light-dark(rgb(0, 0, 0), rgb(255, 255, 255));&quot; data-end=&quot;531&quot; data-start=&quot;507&quot;&gt;senkronize zamanlama&lt;/strong&gt;&lt;span style=&quot;background-color: transparent; color: light-dark(rgb(0, 0, 0), rgb(255, 255, 255));&quot;&gt; ile hareket etmeleri gerekir; aksi halde bölge tekrar çürüme yayar.&lt;/span&gt;&lt;/div&gt;&lt;div&gt;&lt;span style=&quot;background-color: transparent; color: light-dark(rgb(0, 0, 0), rgb(255, 255, 255));&quot;&gt;&lt;br&gt;&lt;/span&gt;&lt;/div&gt;&lt;div&gt;&lt;span style=&quot;background-color: transparent; color: light-dark(rgb(0, 0, 0), rgb(255, 255, 255));&quot;&gt;-&amp;nbsp;&lt;/span&gt;&lt;span style=&quot;background-color: transparent; color: light-dark(rgb(0, 0, 0), rgb(255, 255, 255));&quot;&gt;Bu görev, oyunculara “birlikte etki” kavramını öğretir ve çevre restorasyonu mekaniklerini tanıtır.&lt;/span&gt;&lt;/div&gt;" style="text;whiteSpace=wrap;html=1;" parent="1" vertex="1">
          <mxGeometry x="228" y="1475" width="357" height="190" as="geometry" />
        </mxCell>
        <mxCell id="wo0u3d-V8i8jjWJqVI2R-85" style="edgeStyle=orthogonalEdgeStyle;rounded=0;orthogonalLoop=1;jettySize=auto;html=1;entryX=0.026;entryY=0.595;entryDx=0;entryDy=0;entryPerimeter=0;" parent="1" source="wo0u3d-V8i8jjWJqVI2R-56" target="wo0u3d-V8i8jjWJqVI2R-82" edge="1">
          <mxGeometry relative="1" as="geometry">
            <Array as="points">
              <mxPoint x="195" y="700" />
              <mxPoint x="195" y="1398" />
            </Array>
          </mxGeometry>
        </mxCell>
        <mxCell id="wo0u3d-V8i8jjWJqVI2R-91" style="edgeStyle=orthogonalEdgeStyle;rounded=0;orthogonalLoop=1;jettySize=auto;html=1;" parent="1" source="wo0u3d-V8i8jjWJqVI2R-86" target="wo0u3d-V8i8jjWJqVI2R-89" edge="1">
          <mxGeometry relative="1" as="geometry" />
        </mxCell>
        <mxCell id="wo0u3d-V8i8jjWJqVI2R-86" value="İşin Kökü" style="text;html=1;align=center;verticalAlign=middle;resizable=0;points=[];autosize=1;strokeColor=#b85450;fillColor=#f8cecc;rounded=0;" parent="1" vertex="1">
          <mxGeometry x="635" y="1380" width="70" height="30" as="geometry" />
        </mxCell>
        <mxCell id="wo0u3d-V8i8jjWJqVI2R-87" value="-&amp;nbsp; Sol &amp;amp; Dew kökleri takip ederekten yukarı doğru çıkmaktadır bu sırada bazı köklerin arasında geçiş yapmaları gerekmektedir ve bazı kökler kuraklık yüzünden kırılgan hale gelmiştir bazıları arasında zıplayarak geçiş yapılması gerekmektedir.&lt;div&gt;&lt;br&gt;&lt;/div&gt;&lt;div&gt;- Bazı kökler ise aktifleşmeye ihtiyacı vardır bu da yalnızca dew&#39;in su nem toplaması ve sol&#39;un aktifleştirmesiyle olur.&lt;/div&gt;" style="text;whiteSpace=wrap;html=1;" parent="1" vertex="1">
          <mxGeometry x="635" y="1425" width="357" height="125" as="geometry" />
        </mxCell>
        <mxCell id="wo0u3d-V8i8jjWJqVI2R-89" value="Kökün Anıları" style="text;html=1;align=center;verticalAlign=middle;resizable=0;points=[];autosize=1;strokeColor=#b85450;fillColor=#f8cecc;rounded=0;" parent="1" vertex="1">
          <mxGeometry x="1075" y="1380" width="90" height="30" as="geometry" />
        </mxCell>
        <mxCell id="wo0u3d-V8i8jjWJqVI2R-90" value="-&amp;nbsp; Dew aktifleştirdiği kökler Sol ile iletişime geçerler ve bu durumun nasıl olduğunu anlatırlar." style="text;whiteSpace=wrap;html=1;" parent="1" vertex="1">
          <mxGeometry x="1075" y="1425" width="357" height="45" as="geometry" />
        </mxCell>
        <mxCell id="wo0u3d-V8i8jjWJqVI2R-92" value="(Bozulmuş ses ile arkaplandan hikaye anlatılır)" style="text;html=1;align=center;verticalAlign=middle;resizable=0;points=[];autosize=1;strokeColor=none;fillColor=none;" parent="1" vertex="1">
          <mxGeometry x="1065" y="1470" width="270" height="30" as="geometry" />
        </mxCell>
        <mxCell id="wo0u3d-V8i8jjWJqVI2R-97" value="&lt;p data-start=&quot;168&quot; data-end=&quot;540&quot;&gt;Oyuncular ritim görevinde kutsal kök sistemine enerji akışını başarıyla tamamladıklarında, kökler titreşmeyi bırakır ve aniden bir sessizlik çöker. Bu sessizlik, doğanın kalbinin ritmini dinlediği bir bekleyiş anıdır. Ardından, ritmi yakalayan enerji sayesinde zemindeki büyük bir kök çatlayarak açılır — bu çatlak, kutsal kökün iç koridorlarına açılan doğal bir geçittir.&lt;/p&gt;&#xa;&lt;p data-start=&quot;542&quot; data-end=&quot;772&quot;&gt;Sol ve Dew, bu çatlak kök geçidinden içeri girerek, doğanın hafızasını taşıyan iç yapıya ulaşırlar. Artık sadece yüzeyin değil, doğanın derin bağlarının ve eski anıların yer aldığı bir yere, kökün özüne doğru ilerlemeye başlarlar.&lt;/p&gt;" style="text;whiteSpace=wrap;html=1;fillColor=#d5e8d4;strokeColor=#82b366;" parent="1" vertex="1">
          <mxGeometry x="10" y="1080" width="370" height="230" as="geometry" />
        </mxCell>
        <mxCell id="wo0u3d-V8i8jjWJqVI2R-103" value="" style="group" parent="1" vertex="1" connectable="0">
          <mxGeometry x="555" y="50" width="238.74" height="170" as="geometry" />
        </mxCell>
        <mxCell id="wo0u3d-V8i8jjWJqVI2R-81" value="" style="edgeStyle=orthogonalEdgeStyle;rounded=0;orthogonalLoop=1;jettySize=auto;html=1;" parent="wo0u3d-V8i8jjWJqVI2R-103" source="wo0u3d-V8i8jjWJqVI2R-79" target="wo0u3d-V8i8jjWJqVI2R-80" edge="1">
          <mxGeometry relative="1" as="geometry" />
        </mxCell>
        <mxCell id="wo0u3d-V8i8jjWJqVI2R-79" value="Görev Tanımı" style="whiteSpace=wrap;html=1;fillColor=#fff2cc;strokeColor=#d6b656;" parent="wo0u3d-V8i8jjWJqVI2R-103" vertex="1">
          <mxGeometry x="2.217399380804954" y="125.65217391304348" width="88.69597523219815" height="44.347826086956516" as="geometry" />
        </mxCell>
        <mxCell id="wo0u3d-V8i8jjWJqVI2R-80" value="Görev Bileşeni" style="whiteSpace=wrap;html=1;fillColor=#f8cecc;strokeColor=#b85450;" parent="wo0u3d-V8i8jjWJqVI2R-103" vertex="1">
          <mxGeometry x="150.0440247678019" y="125.65217391304348" width="88.69597523219815" height="44.347826086956516" as="geometry" />
        </mxCell>
        <mxCell id="wo0u3d-V8i8jjWJqVI2R-98" value="" style="edgeStyle=orthogonalEdgeStyle;rounded=0;orthogonalLoop=1;jettySize=auto;html=1;" parent="wo0u3d-V8i8jjWJqVI2R-103" source="wo0u3d-V8i8jjWJqVI2R-99" target="wo0u3d-V8i8jjWJqVI2R-100" edge="1">
          <mxGeometry relative="1" as="geometry" />
        </mxCell>
        <mxCell id="wo0u3d-V8i8jjWJqVI2R-101" value="" style="edgeStyle=orthogonalEdgeStyle;rounded=0;orthogonalLoop=1;jettySize=auto;html=1;" parent="wo0u3d-V8i8jjWJqVI2R-103" source="wo0u3d-V8i8jjWJqVI2R-99" target="wo0u3d-V8i8jjWJqVI2R-79" edge="1">
          <mxGeometry relative="1" as="geometry" />
        </mxCell>
        <mxCell id="wo0u3d-V8i8jjWJqVI2R-99" value="Görev Tanımı" style="whiteSpace=wrap;html=1;fillColor=#fff2cc;strokeColor=#d6b656;" parent="wo0u3d-V8i8jjWJqVI2R-103" vertex="1">
          <mxGeometry x="2.217399380804954" width="88.69597523219815" height="44.347826086956516" as="geometry" />
        </mxCell>
        <mxCell id="wo0u3d-V8i8jjWJqVI2R-100" value="Görev Bileşeni" style="whiteSpace=wrap;html=1;fillColor=#f8cecc;strokeColor=#b85450;" parent="wo0u3d-V8i8jjWJqVI2R-103" vertex="1">
          <mxGeometry x="150.0440247678019" width="88.69597523219815" height="44.347826086956516" as="geometry" />
        </mxCell>
        <mxCell id="wo0u3d-V8i8jjWJqVI2R-102" value="Hikaye Geçişi" style="whiteSpace=wrap;html=1;fillColor=#d5e8d4;strokeColor=#82b366;" parent="wo0u3d-V8i8jjWJqVI2R-103" vertex="1">
          <mxGeometry y="59.13043478260869" width="88.69597523219815" height="44.347826086956516" as="geometry" />
        </mxCell>
        <mxCell id="ZglXldF4k75rsDV_egjw-2" value="Oyunun hikayesini derinleştirelecek bölüm (kitabe)" style="text;html=1;align=center;verticalAlign=middle;resizable=0;points=[];autosize=1;strokeColor=none;fillColor=none;" vertex="1" parent="1">
          <mxGeometry x="225" y="1708" width="290" height="30" as="geometry" />
        </mxCell>
      </root>
    </mxGraphModel>
  </diagram>
</mxfile>
